<?xml version="1.0" encoding="iso-8859-1"?>
<!-- Generator: Adobe Illustrator 19.0.0, SVG Export Plug-In . SVG Version: 6.00 Build 0)  -->
<svg version="1.1" id="Layer_1" xmlns="http://www.w3.org/2000/svg" xmlns:xlink="http://www.w3.org/1999/xlink" x="0px" y="0px"
	 viewBox="0 0 233.052 233.052" style="enable-background:new 0 0 233.052 233.052;" xml:space="preserve">
<g>
	<path style="fill:#1D1D1B;" d="M232.867,109.894c2.532,37.011-21.218,72.374-53.246,89.132
		c-41.03,21.459-89.333,16.355-133.577,10.77c-1.768-0.241-2.371-2.21-1.768-3.376c0-0.241,0.08-0.482,0.241-0.723
		c13.944-18.968,28.652-48.585,16.677-71.892c-9.363,23.469-34.52,30.863-58.229,34.278c-2.451,0.362-3.858-2.049-2.331-3.978
		c24.272-31.224,25.035-71.048,2.571-103.478c-1.326-1.929,0.884-3.737,2.733-3.496c22.022,2.974,43.963,9.966,52.804,30.943
		c2.009-19.128-7.474-38.779-14.587-55.657c-0.161-0.362-0.201-0.723-0.161-1.005c-0.764-0.844-0.643-2.451,0.723-3.014
		c39.141-15.713,85.073-12.377,122.687,6.108C196.378,48.772,230.455,75.053,232.867,109.894z M228.527,116.565
		c0.763-38.699-38.096-67.512-71.089-81.456c26.281,46.736,36.047,115.453,10.408,164.038
		C201.12,184.84,227.803,154.38,228.527,116.565z M161.939,201.518c30.099-50.594,15.793-118.186-8.68-168.097
		c-10.689-4.179-21.419-6.832-32.189-8.318c21.258,21.941,28.492,55.376,31.385,84.832c3.335,33.997-1.808,67.713-17.159,98.214
		c7.153-1.085,14.226-2.612,21.258-4.782C158.362,202.803,160.131,202.161,161.939,201.518z M130.152,208.831
		c28.17-53.487,28.05-136.471-12.658-184.171c-7.917-0.884-15.793-1.165-23.75-0.844c19.731,20.334,26,51.076,28.773,78.322
		c3.737,36.89-1.969,73.58-15.19,108.059C114.962,210.158,122.597,209.756,130.152,208.831z M102.986,210.198
		c22.142-57.104,27.447-135.265-12.176-186.22c-10.328,0.603-20.736,2.13-31.144,4.38C93.02,75.898,99.932,158.76,66.98,207.827
		C78.955,209.072,90.971,210.037,102.986,210.198z M63.524,206.742c32.55-54.05,22.303-124.053-6.148-177.862
		c-3.215,0.764-6.389,1.527-9.604,2.371c10.73,16.034,19.008,43.28,12.98,62.368c0,0.04,0,0.08,0,0.12
		c0.362,1.246-0.281,2.17-1.206,2.572c-0.281,0.201-0.603,0.281-0.884,0.241c-0.964,0.04-1.969-0.402-2.331-1.607
		c-6.711-21.74-26.081-29.014-46.214-32.39c2.451,3.938,4.541,7.957,6.309,12.015c7.716,0.884,15.672,3.818,21.258,9.363
		c1.085,1.085-0.402,3.094-1.688,2.17c-5.907-4.099-11.654-7.274-18.526-8.961c2.652,6.51,4.501,13.181,5.546,19.892
		c6.068-0.201,12.417,1.286,17.36,4.862c1.246,0.924,0.161,2.813-1.246,2.09c-5.184-2.572-10.127-4.219-15.753-4.621
		c0.965,7.274,1.005,14.587,0.08,21.821c5.747-0.804,11.533-1.567,17.32-1.607c1.125,0,1.407,1.768,0.281,1.969
		c-5.867,1.085-11.895,1.407-17.883,1.688c-1.125,7.756-3.255,15.391-6.47,22.785c8.077-2.853,15.351-6.59,22.464-11.453
		c1.085-0.723,2.411,0.964,1.407,1.768c-7.113,5.827-15.713,10.087-24.674,12.176c-0.121,0.04-0.201-0.04-0.321-0.04
		c-2.25,4.822-4.863,9.524-7.997,14.065c22.022-3.898,41.914-12.056,52.724-33.635c0.402-0.804,1.366-0.764,1.929-0.281
		c0.241,0.08,0.482,0.241,0.723,0.482c17.682,21.057,2.371,58.711-14.306,76.715c4.863,0.563,9.725,1.125,14.587,1.648
		C63.283,207.224,63.363,206.983,63.524,206.742z"/>
	<path style="fill:#FFED33;" d="M157.438,35.109c32.992,13.944,71.852,42.758,71.089,81.456
		c-0.723,37.815-27.407,68.275-60.68,82.582C193.485,150.562,183.719,81.845,157.438,35.109z M207.308,112.024
		c0.04-0.844,0.04-1.688,0-2.572c0-0.924-0.08-1.849-0.241-2.733c-0.08-0.804-0.241-1.607-0.402-2.371
		c-0.04-0.08-0.04-0.161-0.08-0.241c-0.804-3.376-2.25-6.59-4.742-8.921c-1.206-1.165-3.818-0.04-3.054,1.768
		c0.04,0.121,0.08,0.201,0.12,0.322c-0.362,0.603-0.482,1.407,0.121,2.25c1.246,1.728,2.09,3.536,2.692,5.425
		c0.603,2.17,0.965,4.461,0.804,7.073C202.325,115.118,207.067,115.038,207.308,112.024z M204.536,123.999
		c1.005-0.08,1.246-1.447,0.241-1.768c-2.371-0.723-4.3-2.049-4.501-4.782c-0.08-1.005-1.487-0.965-1.567,0
		C198.468,120.664,201.04,124.321,204.536,123.999z M202.768,127.978c1.045,0.201,1.768-1.206,0.764-1.808
		c-1.808-1.005-3.818-1.527-5.747-2.17c-1.286-0.442-1.768,1.487-0.563,2.009C199.03,126.732,200.839,127.616,202.768,127.978z
		 M202.285,171.66c0.402-0.884-0.764-1.969-1.447-1.125c-2.25,2.853-4.42,5.666-7.314,7.917c-0.924,0.683-0.08,2.25,0.924,1.567
		C197.543,177.848,200.557,175.116,202.285,171.66z M197.423,74.089c0.321,0.723,1.366,0.121,1.045-0.603
		c-1.567-3.335-3.778-6.269-6.51-8.76c-0.402-0.362-1.005,0.241-0.603,0.643C193.846,67.94,195.856,70.874,197.423,74.089z
		 M198.186,166.395c0.924-0.844-0.402-2.13-1.326-1.366c-2.291,1.929-4.461,3.898-6.631,5.947c-0.844,0.844,0.402,2.049,1.326,1.286
		C193.806,170.374,196.056,168.445,198.186,166.395z M196.78,66.092c0.402,0.241,0.924-0.362,0.522-0.683
		c-2.411-1.889-4.661-4.059-6.59-6.47c-0.321-0.362-0.964,0.121-0.683,0.522C191.877,62.154,194.047,64.364,196.78,66.092z"/>
	<path style="fill:#1D1D1B;" d="M207.308,109.452c0.04,0.884,0.04,1.728,0,2.572c-0.241,3.014-4.983,3.094-4.782,0
		c0.161-2.612-0.201-4.903-0.804-7.073c-0.603-1.889-1.447-3.697-2.692-5.425c-0.603-0.844-0.482-1.648-0.121-2.25
		c-0.04-0.121-0.08-0.201-0.12-0.322c-0.764-1.808,1.848-2.934,3.054-1.768c2.492,2.331,3.938,5.546,4.742,8.921
		c0.04,0.08,0.04,0.161,0.08,0.241c0.161,0.764,0.321,1.567,0.402,2.371C207.228,107.604,207.308,108.528,207.308,109.452z"/>
	<path style="fill:#1D1D1B;" d="M204.777,122.231c1.005,0.321,0.764,1.688-0.241,1.768c-3.496,0.321-6.068-3.335-5.827-6.55
		c0.08-0.965,1.487-1.005,1.567,0C200.477,120.182,202.406,121.508,204.777,122.231z"/>
	<path style="fill:#1D1D1B;" d="M203.531,126.17c1.005,0.603,0.281,2.009-0.764,1.808c-1.929-0.362-3.737-1.246-5.546-1.969
		c-1.206-0.522-0.723-2.451,0.563-2.009C199.713,124.642,201.723,125.165,203.531,126.17z"/>
	<path style="fill:#1D1D1B;" d="M200.839,170.534c0.683-0.844,1.849,0.241,1.447,1.125c-1.728,3.456-4.742,6.189-7.836,8.359
		c-1.005,0.683-1.849-0.884-0.924-1.567C196.418,176.201,198.588,173.388,200.839,170.534z"/>
	<path style="fill:#1D1D1B;" d="M198.468,73.486c0.322,0.723-0.723,1.326-1.045,0.603c-1.567-3.215-3.577-6.148-6.068-8.72
		c-0.402-0.402,0.201-1.005,0.603-0.643C194.69,67.217,196.9,70.151,198.468,73.486z"/>
	<path style="fill:#1D1D1B;" d="M196.86,165.029c0.924-0.764,2.25,0.522,1.326,1.366c-2.13,2.05-4.38,3.978-6.631,5.867
		c-0.924,0.763-2.17-0.442-1.326-1.286C192.4,168.927,194.57,166.958,196.86,165.029z"/>
	<path style="fill:#1D1D1B;" d="M197.302,65.409c0.402,0.322-0.121,0.924-0.522,0.683c-2.733-1.728-4.903-3.938-6.751-6.631
		c-0.281-0.402,0.362-0.884,0.683-0.522C192.641,61.35,194.891,63.52,197.302,65.409z"/>
	<path style="fill:#1D1D1B;" d="M167.284,172.423c0.442-1.085,2.17-0.643,1.768,0.482c-1.125,3.416-2.371,6.832-4.38,9.846
		c-0.482,0.683-1.728,0.241-1.406-0.603C164.471,178.853,166.038,175.678,167.284,172.423z"/>
	<path style="fill:#1D1D1B;" d="M165.073,165.19c0.201,4.099-0.643,8.319-3.295,11.533c-0.643,0.764-1.648-0.201-1.286-1.005
		c1.607-3.416,3.014-6.711,3.255-10.529C163.787,164.346,165.033,164.346,165.073,165.19z"/>
	<path style="fill:#33B4AE;" d="M153.259,33.421c24.473,49.911,38.779,117.503,8.68,168.097c-1.808,0.643-3.576,1.286-5.385,1.848
		c-7.032,2.17-14.105,3.697-21.258,4.782c15.351-30.501,20.495-64.217,17.159-98.214c-2.893-29.456-10.127-62.89-31.385-84.832
		C131.84,26.589,142.569,29.242,153.259,33.421z M169.052,172.905c0.402-1.125-1.326-1.567-1.768-0.482
		c-1.246,3.255-2.813,6.43-4.019,9.725c-0.322,0.844,0.924,1.286,1.406,0.603C166.681,179.737,167.927,176.321,169.052,172.905z
		 M161.778,176.723c2.652-3.215,3.496-7.434,3.295-11.533c-0.04-0.844-1.286-0.844-1.326,0c-0.241,3.818-1.648,7.113-3.255,10.529
		C160.131,176.522,161.135,177.487,161.778,176.723z M160.372,81.925c0.12,0.603,1.125,0.482,1.045-0.12
		c-0.402-3.536-1.527-6.671-3.255-9.725c-0.402-0.683-1.366-0.08-1.045,0.563C158.684,75.576,159.729,78.71,160.372,81.925z"/>
	<path style="fill:#1D1D1B;" d="M161.416,81.805c0.08,0.603-0.924,0.723-1.045,0.12c-0.643-3.215-1.688-6.349-3.255-9.283
		c-0.322-0.643,0.643-1.246,1.045-0.563C159.889,75.134,161.015,78.268,161.416,81.805z"/>
	<path style="fill:#1D1D1B;" d="M134.251,128.902c0.764,3.175,0.322,6.51-1.005,9.484c-0.281,0.723-1.487,0.201-1.206-0.522
		c1.125-2.934,1.487-5.706,1.326-8.841C133.327,128.5,134.13,128.38,134.251,128.902z"/>
	<path style="fill:#FFED33;" d="M117.494,24.66c40.708,47.7,40.829,130.684,12.658,184.171c-7.555,0.924-15.19,1.326-22.825,1.366
		c13.221-34.479,18.927-71.169,15.19-108.059c-2.773-27.246-9.042-57.988-28.773-78.322
		C101.701,23.495,109.577,23.776,117.494,24.66z M133.246,138.386c1.326-2.974,1.768-6.309,1.005-9.484
		c-0.121-0.522-0.924-0.402-0.884,0.12c0.161,3.135-0.201,5.907-1.326,8.841C131.759,138.587,132.965,139.109,133.246,138.386z
		 M130.072,67.9c0.281,0.764,1.487,0.482,1.246-0.321c-0.723-2.692-2.17-4.903-4.22-6.791c-0.563-0.523-1.366,0.281-0.844,0.844
		C127.942,63.48,129.147,65.57,130.072,67.9z M129.75,131.554c0.201-2.451-0.04-4.782-0.603-7.193
		c-0.121-0.603-1.045-0.321-0.924,0.281c0.362,2.291,0.482,4.581,0.402,6.912C128.625,132.238,129.67,132.238,129.75,131.554z"/>
	<path style="fill:#1D1D1B;" d="M131.317,67.579c0.241,0.804-0.964,1.085-1.246,0.321c-0.924-2.331-2.13-4.42-3.818-6.269
		c-0.522-0.563,0.281-1.366,0.844-0.844C129.147,62.676,130.594,64.886,131.317,67.579z"/>
	<path style="fill:#1D1D1B;" d="M129.147,124.361c0.563,2.411,0.804,4.742,0.603,7.193c-0.08,0.683-1.125,0.683-1.125,0
		c0.08-2.331-0.04-4.621-0.402-6.912C128.103,124.04,129.027,123.758,129.147,124.361z"/>
	<path style="fill:#33B4AE;" d="M90.81,23.977c39.623,50.955,34.318,129.117,12.176,186.22c-12.016-0.161-24.031-1.125-36.006-2.371
		c32.952-49.067,26.04-131.93-7.314-179.469C70.074,26.107,80.482,24.58,90.81,23.977z M98.486,42.945
		c0.281,0.603,1.246,0.161,1.085-0.442c-0.964-3.617-3.094-6.51-6.108-8.68c-0.643-0.442-1.447,0.603-0.844,1.125
		C95.15,37.198,97.079,39.851,98.486,42.945z M95.954,46.24c0.764,0.804,1.969-0.402,1.206-1.246
		c-1.889-2.049-2.893-4.38-3.456-7.073c-0.201-0.804-1.487-0.643-1.447,0.201C92.418,41.257,93.824,43.99,95.954,46.24z
		 M88.64,174.633c1.648-2.331,2.25-5.104,2.17-7.957c-0.04-0.964-1.567-0.964-1.567,0c-0.04,2.612-0.804,4.863-1.929,7.153
		C86.872,174.754,88.078,175.437,88.64,174.633z M89.042,161.091c0.161-0.362-0.402-0.522-0.603-0.241
		c-1.889,2.612-2.893,5.666-3.094,8.881c-0.04,0.884,1.286,0.844,1.407,0C87.113,166.677,87.917,163.904,89.042,161.091z"/>
	<path style="fill:#1D1D1B;" d="M99.571,42.503c0.161,0.603-0.804,1.045-1.085,0.442c-1.407-3.094-3.335-5.746-5.867-7.997
		c-0.603-0.522,0.201-1.567,0.844-1.125C96.476,35.993,98.606,38.886,99.571,42.503z"/>
	<path style="fill:#1D1D1B;" d="M97.16,44.994c0.764,0.844-0.442,2.05-1.206,1.246c-2.13-2.25-3.536-4.983-3.697-8.118
		c-0.04-0.844,1.246-1.005,1.447-0.201C94.266,40.614,95.271,42.945,97.16,44.994z"/>
	<path style="fill:#1D1D1B;" d="M90.81,166.677c0.08,2.853-0.522,5.626-2.17,7.957c-0.563,0.804-1.768,0.12-1.326-0.804
		c1.125-2.291,1.889-4.541,1.929-7.153C89.243,165.712,90.77,165.712,90.81,166.677z"/>
	<path style="fill:#1D1D1B;" d="M88.439,160.85c0.201-0.281,0.763-0.121,0.603,0.241c-1.125,2.813-1.929,5.586-2.291,8.64
		c-0.121,0.844-1.447,0.884-1.407,0C85.546,166.516,86.551,163.462,88.439,160.85z"/>
	<path style="fill:#1D1D1B;" d="M70.074,72.361c1.447,2.331,2.009,4.943,1.567,7.635c-0.121,0.924-1.447,0.603-1.487-0.201
		c-0.201-2.371-0.603-4.581-1.447-6.832C68.387,72.12,69.632,71.678,70.074,72.361z"/>
	<path style="fill:#1D1D1B;" d="M66.779,80.8c0.161,2.25,0.04,4.42-0.522,6.631c-0.12,0.482-0.844,0.281-0.723-0.201
		c0.402-2.13,0.603-4.26,0.482-6.43C66.016,80.318,66.739,80.318,66.779,80.8z"/>
	<path style="fill:#FFED33;" d="M57.376,28.88c28.451,53.809,38.699,123.812,6.148,177.862c-0.161,0.241-0.241,0.482-0.281,0.723
		c-4.862-0.522-9.725-1.085-14.587-1.648c16.677-18.003,31.988-55.657,14.306-76.715c-0.241-0.241-0.482-0.402-0.723-0.482
		c-0.563-0.482-1.527-0.522-1.929,0.281c-10.81,21.58-30.702,29.737-52.724,33.635c3.134-4.541,5.747-9.243,7.997-14.065
		c0.121,0,0.201,0.08,0.321,0.04c8.961-2.09,17.561-6.349,24.674-12.176c1.005-0.804-0.322-2.492-1.407-1.768
		c-7.113,4.862-14.386,8.6-22.464,11.453c3.215-7.394,5.345-15.029,6.47-22.785c5.988-0.281,12.015-0.603,17.883-1.688
		c1.125-0.201,0.844-1.969-0.281-1.969c-5.787,0.04-11.573,0.804-17.32,1.607c0.924-7.233,0.884-14.547-0.08-21.821
		c5.626,0.402,10.569,2.049,15.753,4.621c1.406,0.723,2.492-1.165,1.246-2.09c-4.943-3.576-11.292-5.063-17.36-4.862
		c-1.045-6.711-2.893-13.382-5.546-19.892c6.872,1.688,12.618,4.863,18.526,8.961c1.286,0.924,2.773-1.085,1.688-2.17
		c-5.586-5.546-13.543-8.479-21.258-9.363c-1.768-4.059-3.858-8.077-6.309-12.015c20.133,3.376,39.502,10.649,46.214,32.39
		c0.362,1.206,1.366,1.648,2.331,1.607c0.281,0.04,0.603-0.04,0.884-0.241c0.924-0.402,1.567-1.326,1.206-2.572
		c0-0.04,0-0.08,0-0.12c6.028-19.088-2.25-46.334-12.98-62.368C50.986,30.407,54.161,29.644,57.376,28.88z M71.642,79.996
		c0.442-2.692-0.121-5.304-1.567-7.635c-0.442-0.683-1.688-0.241-1.366,0.603c0.844,2.25,1.246,4.461,1.447,6.832
		C70.195,80.599,71.521,80.92,71.642,79.996z M66.257,87.431c0.563-2.21,0.683-4.38,0.522-6.631c-0.04-0.482-0.763-0.482-0.763,0
		c0.121,2.17-0.08,4.3-0.482,6.43C65.413,87.712,66.136,87.913,66.257,87.431z M53.679,129.103c0.161-0.402-0.522-0.683-0.683-0.281
		c-1.005,2.13-2.09,4.139-3.496,6.028c-0.362,0.482,0.402,0.924,0.764,0.442C51.71,133.403,52.875,131.394,53.679,129.103z
		 M52.111,125.727c0.201-1.085-1.246-1.447-1.607-0.442c-1.206,3.135-2.733,5.988-5.104,8.359c-0.683,0.723,0.321,1.688,1.045,1.085
		C49.339,132.438,51.468,129.384,52.111,125.727z"/>
	<path style="fill:#1D1D1B;" d="M52.995,128.822c0.161-0.402,0.844-0.12,0.683,0.281c-0.804,2.291-1.969,4.3-3.416,6.189
		c-0.362,0.482-1.125,0.04-0.764-0.442C50.906,132.961,51.991,130.952,52.995,128.822z"/>
	<path style="fill:#1D1D1B;" d="M50.504,125.285c0.362-1.005,1.808-0.643,1.607,0.442c-0.643,3.657-2.773,6.711-5.666,9.002
		c-0.723,0.603-1.728-0.362-1.045-1.085C47.771,131.273,49.298,128.42,50.504,125.285z"/>
</g>
<g>
</g>
<g>
</g>
<g>
</g>
<g>
</g>
<g>
</g>
<g>
</g>
<g>
</g>
<g>
</g>
<g>
</g>
<g>
</g>
<g>
</g>
<g>
</g>
<g>
</g>
<g>
</g>
<g>
</g>
</svg>
