<?xml version="1.0" encoding="iso-8859-1"?>
<!-- Generator: Adobe Illustrator 19.0.0, SVG Export Plug-In . SVG Version: 6.00 Build 0)  -->
<svg version="1.1" id="Layer_1" xmlns="http://www.w3.org/2000/svg" xmlns:xlink="http://www.w3.org/1999/xlink" x="0px" y="0px"
	 viewBox="0 0 268.069 268.069" style="enable-background:new 0 0 268.069 268.069;" xml:space="preserve">
<g>
	<path style="fill:#1D1D1B;" d="M224.012,93.028c2.845,22.327,10.235,77.775-26.234,77.038c-0.443,0-0.776-0.147-1.072-0.368
		c0.813,8.805,1.035,17.611,0.222,26.49c-3.99,43.916-32.035,70.738-76.484,71.843c-42.898,1.068-76.669-20.521-77.593-65.138
		C41.595,143.576,85.158,71.144,41.78,18.827c-0.406-0.479-0.369-1.068-0.111-1.51c0.037-0.184,0.111-0.368,0.222-0.516
		c-0.074-0.184-0.148-0.405-0.111-0.589C44.403,2.58,99.309,1.253,111.613,0.553c17.588-0.995,66.065-2.874,74.822,17.316
		c0.443,1.032-0.111,1.953-0.887,2.321c0.406,0.553,0.517,1.253,0.111,2.026c-5.099,9.211-7.057,20.227-7.279,31.869
		c10.161-5.269,21.578-4.716,31.185,2.653C220.76,65.323,222.349,80.06,224.012,93.028z M197.778,166.419
		c30.557,0.184,25.236-43.216,23.573-62.927c-2.18-25.569-8.942-57.069-43.009-47.195c0,4.163,0.259,8.4,0.628,12.637
		c28.488-18.348,54.02,73.464,16.442,89.933c0.369,2.689,0.776,5.379,1.035,8.068C196.743,166.64,197.187,166.419,197.778,166.419z
		 M194.896,155.108c14.706-7.442,17.329-22.621,15.851-37.874c-1.182-12.011-7.131-56.59-31.555-46.238
		c0.48,4.79,1.145,9.579,1.921,14.295c0.111,0.258,0.148,0.553,0.148,0.81c2.106,12.6,4.951,24.795,7.094,35.074
		C190.647,132.413,193.122,143.724,194.896,155.108z M188.208,218.735c8.424-25.016,5.025-52.059,0.185-77.333
		c-3.325-17.242-7.168-34.3-9.718-51.653c-29.781,23.579-85.906,19.49-115.318-3.168c-1.108,15.621-4.286,31.427-7.316,46.385
		c-5.358,26.195-12.119,53.68-8.683,80.575c4.36,34.558,33.993,49.406,66.434,50.585
		C147.195,265.341,177.197,251.599,188.208,218.735z M182.666,18.496c0.037-0.074,0.111-0.037,0.148-0.074
		C172.431,2.285,130.679,3.501,114.791,4.201C101.932,4.753,89.037,6.227,76.29,8.217c-6.503,1.031-29.042,2.542-32.441,8.511
		c20.063,13.042,43.046,17.279,66.767,17.721C133.782,34.854,163.526,32.975,182.666,18.496z M177.271,86.839
		c0.111-0.074,0.222-0.111,0.37-0.147C149.19,62.744,94.579,69.044,63.579,84.481c-0.037,0.037-0.037,0-0.074,0
		c0,0.111,0,0.184,0,0.295C96.575,103.786,144.461,108.944,177.271,86.839z M177.641,81.939c-0.259-2.063-0.554-4.126-0.776-6.226
		c-1.7-17.169-3.732-35.074,3.141-51.101c-19.177,12.563-47.406,14.074-69.39,13.595c-21.172-0.479-44.302-3.389-62.222-15.253
		C61.4,40.491,64.578,61.086,63.617,82.197c18.659-11.679,40.311-14.184,62-14.111C144.387,68.123,163.157,69.78,177.641,81.939z"/>
	<path style="fill:#CCECF9;" d="M221.351,103.491c1.663,19.711,6.983,63.111-23.573,62.927c-0.591,0-1.035,0.221-1.33,0.516
		c-0.259-2.689-0.665-5.379-1.035-8.068c37.577-16.469,12.045-108.281-16.442-89.933c-0.37-4.237-0.628-8.474-0.628-12.637
		C212.41,46.422,219.171,77.923,221.351,103.491z"/>
	<path style="fill:#1D1D1B;" d="M189.243,187.935c0.776,3.021,0.961,5.932,0.554,9.026c-0.185,1.253-2.143,1.326-2.032,0
		c0.222-2.837,0.074-5.711-0.406-8.474C187.1,187.235,188.947,186.719,189.243,187.935z"/>
	<path style="fill:#FFED33;" d="M188.393,141.403c4.84,25.274,8.24,52.317-0.185,77.333c-11.011,32.864-41.013,46.606-74.415,45.39
		c-32.441-1.179-62.074-16.027-66.434-50.585c-3.436-26.895,3.325-54.38,8.683-80.575c3.03-14.958,6.207-30.764,7.316-46.385
		c29.412,22.658,85.537,26.748,115.318,3.168C181.225,107.102,185.068,124.16,188.393,141.403z M189.797,196.961
		c0.406-3.095,0.222-6.005-0.554-9.026c-0.296-1.216-2.143-0.7-1.884,0.553c0.48,2.763,0.628,5.637,0.406,8.474
		C187.654,198.287,189.612,198.214,189.797,196.961z M177.05,145.124c0.887-2.763-0.074-5.637-2.328-7.405
		c-0.85-0.7-2.069,0.442-1.256,1.216c1.626,1.474,2.254,3.574,1.884,5.711C175.165,145.75,176.68,146.192,177.05,145.124z
		 M174.131,145.713c1.663-3.205-1.33-6.926-4.766-6.889c-0.924,0-0.924,1.437,0,1.474c2.549,0.074,3.88,2.579,3.51,4.9
		C172.727,145.897,173.724,146.45,174.131,145.713z M173.318,238.851c0.037-0.7-1.072-0.995-1.367-0.368
		c-1.663,3.684-3.325,6.963-6.688,9.321c-1.035,0.737-0.037,2.432,0.998,1.732C169.808,247.03,172.911,243.309,173.318,238.851z
		 M168.958,238.925c0.628-0.737-0.406-1.805-1.072-1.068c-1.219,1.363-2.439,2.726-3.584,4.163c-0.554,0.7-1.367,1.363-1.109,2.321
		c0.074,0.258,0.296,0.442,0.591,0.442c0.296,0,0.443-0.074,0.665-0.295c0.148-0.111,0.222-0.332,0.148-0.516
		c0.037-0.037,0.037-0.037,0.074-0.111c0.259-0.258,0.48-0.479,0.702-0.737c0.406-0.442,0.813-0.847,1.182-1.29
		C167.369,240.878,168.145,239.92,168.958,238.925z M166.002,155.955c1.219-3.058,4.397-8.326,2.402-11.605
		c-1.7-2.763-6.762-4.274-9.644-5.195c-4.175-1.363-9.496-3.095-13.967-2.469c-9.57,1.326-10.826,15.548-11.861,22.953
		c-0.148,1.069,0.628,1.769,1.441,1.916c6.17,3.279,19.398,10.279,25.864,5.232C163.342,164.355,164.635,159.455,166.002,155.955z
		 M165.115,201.788c0.776-1.99,0.961-3.868,0.333-5.932c-0.222-0.774-1.515-0.663-1.441,0.184c0.185,1.805,0.074,3.574-0.591,5.305
		C163.046,202.414,164.746,202.856,165.115,201.788z M161.974,198.803c0.148-3.795-3.067-6.669-5.395-9.284
		c-3.399-3.795-7.353-9.837-12.563-11.384c-3.288-0.958-6.17,0.295-8.868,2.174c-4.212,2.984-9.976,7.442-12.563,11.974
		c-5.173,9.174,7.279,20.558,13.265,26.121c0.259,0.258,0.554,0.332,0.813,0.368c0.148,0.479,0.628,0.847,1.219,0.553
		C144.793,216.082,161.605,208.014,161.974,198.803z M117.414,186.793c0.554-0.81-0.665-1.732-1.33-1.031
		c-2.18,2.321-2.956,5.6-1.995,8.658c0.222,0.737,1.589,0.663,1.478-0.221C115.197,191.472,115.788,189.04,117.414,186.793z
		 M116.158,183.808c0.702-0.332,0.222-1.584-0.554-1.29c-2.143,0.811-3.547,2.358-4.212,4.568c-0.259,0.884,1.071,1.216,1.33,0.368
		C113.313,185.724,114.495,184.545,116.158,183.808z M114.495,125.376c0.591-2.763-1.921-4.605-3.695-6.226
		c-2.882-2.616-5.838-6.153-9.2-8.105c-6.577-3.905-14.817,6.411-18.881,10.537c-0.443,0.442-0.48,0.958-0.296,1.437
		c-0.517,0.074-0.961,0.553-0.628,1.179c2.291,4.495,5.247,8.584,8.683,12.269c1.847,1.953,4.286,5.232,7.39,4.826
		c3.067-0.405,6.207-4.9,8.166-6.779C108.435,132.229,113.793,128.876,114.495,125.376z M104.63,223.451
		c1.293-2.763,4.101-6.926,2.254-10.058c-1.884-3.132-7.87-4.163-10.974-5.121c-4.138-1.29-10.346-3.868-14.706-2.616
		c-3.03,0.884-4.545,3.574-5.727,6.226c-2.069,4.716-4.951,11.274-4.582,16.505c0.074,0.59,0.369,0.995,0.776,1.253
		c0.074,0.221,0.185,0.405,0.369,0.553c5.875,3.611,18.881,11.642,25.458,6.263C101.119,233.509,102.708,227.577,104.63,223.451z
		 M105.59,242.83c0.443-0.7-0.628-1.289-1.072-0.626c-0.924,1.363-2.291,2.247-3.99,2.432c-0.628,0.037-0.665,0.995,0,0.995
		C102.708,245.63,104.482,244.709,105.59,242.83z M103.41,237.635c0.185-0.589-0.628-1.068-1.035-0.589
		c-1.256,1.437-2.586,2.579-4.619,2.579c-0.813,0.037-0.776,1.216,0,1.29C100.159,241.135,102.671,239.993,103.41,237.635z
		 M99.9,149.582c0.776-0.516,0.111-1.768-0.739-1.253c-2.439,1.437-5.542,1.105-7.538-0.995c-0.591-0.626-1.478,0.295-0.961,0.958
		C92.917,151.018,96.981,151.645,99.9,149.582z M96.427,144.792c0.739-0.479,0.074-1.658-0.702-1.179
		c-1.589,0.921-3.473,0.663-4.729-0.663c-0.591-0.626-1.515,0.332-0.961,0.958C91.697,145.787,94.321,146.155,96.427,144.792z
		 M61.325,194.235c0.591,1.179,2.217,0.147,1.737-0.995c-1.108-2.579-1.035-5.305-0.369-7.995c0.296-1.069-1.367-1.842-1.811-0.774
		C59.478,187.714,59.773,191.103,61.325,194.235z M62.36,139.56c0.259-0.811-1.035-1.363-1.367-0.589
		c-1.256,2.947-2.328,5.895-3.289,8.953c-0.222,0.737,0.998,1.29,1.293,0.553C60.254,145.529,61.399,142.581,62.36,139.56z
		 M58.813,137.313c0.185-0.7-0.924-1.216-1.219-0.516c-1.958,4.126-2.956,8.621-3.325,13.153c-0.074,0.663,1.071,0.847,1.219,0.147
		C56.3,145.713,57.52,141.55,58.813,137.313z"/>
	<path style="fill:#CCECF9;" d="M182.814,18.422c-0.037,0.037-0.111,0-0.148,0.074c-19.14,14.479-48.883,16.358-72.051,15.953
		c-23.721-0.442-46.704-4.679-66.767-17.721c3.399-5.968,25.938-7.479,32.441-8.511c12.747-1.99,25.643-3.463,38.501-4.016
		C130.679,3.501,172.431,2.285,182.814,18.422z M171.581,15.622c0.702,0.59,1.663-0.332,1.035-1.032
		c-2.586-2.874-5.949-4.826-9.496-6.226c-0.591-0.221-0.961,0.737-0.443,0.995C166.002,11.017,168.81,13.227,171.581,15.622z
		 M167.665,16.064c0.628,0.295,1.404-0.553,0.776-1.032c-4.766-3.721-10.604-5.195-16.627-5.342c-0.961-0.037-0.924,1.4,0,1.437
		C157.541,11.569,162.566,13.522,167.665,16.064z M71.265,22.659c0.924,0.221,1.33-1.179,0.369-1.437
		c-3.141-0.847-6.207-1.953-9.089-3.5c-0.813-0.405-1.515,0.774-0.739,1.216C64.799,20.632,67.902,21.922,71.265,22.659z
		 M66.646,24.059c0.924,0.295,1.293-1.105,0.369-1.437c-3.289-1.326-6.503-3.058-9.459-5.084c-0.924-0.626-1.737,0.847-0.85,1.474
		C59.736,21.296,62.988,22.954,66.646,24.059z"/>
	<path style="fill:#FFED33;" d="M177.641,86.691c-0.148,0.037-0.259,0.074-0.37,0.147c-32.811,22.105-80.697,16.948-113.766-2.063
		c0-0.111,0-0.184,0-0.295c0.037,0,0.037,0.037,0.074,0C94.579,69.044,149.19,62.744,177.641,86.691z M153.07,81.939
		c0.628,0.737,1.847-0.221,1.293-0.995c-2.069-3.132-5.727-4.753-9.459-4.826c-0.813-0.037-0.776,1.105,0,1.179
		C148.303,77.628,150.89,79.396,153.07,81.939z M91.587,89.344c0.813,0.111,1.182-1.032,0.369-1.253
		c-2.66-0.59-5.284-1.437-7.722-2.653c-0.776-0.368-1.441,0.737-0.665,1.142C86.118,87.944,88.741,88.902,91.587,89.344z
		 M87.596,91.665c0.591,0.074,0.739-0.958,0.148-1.068c-3.732-0.774-7.279-2.137-10.457-4.163c-0.591-0.368-1.071,0.479-0.554,0.884
		C80.022,89.675,83.569,91.112,87.596,91.665z"/>
	<path style="fill:#1D1D1B;" d="M174.722,137.718c2.254,1.768,3.214,4.642,2.328,7.405c-0.37,1.068-1.884,0.626-1.7-0.479
		c0.37-2.137-0.259-4.237-1.884-5.711C172.653,138.16,173.872,137.018,174.722,137.718z"/>
	<path style="fill:#CCECF9;" d="M176.865,75.712c0.222,2.1,0.517,4.163,0.776,6.226c-14.484-12.158-33.254-13.816-52.024-13.853
		c-21.689-0.074-43.341,2.432-62,14.111C64.578,61.085,61.4,40.49,48.394,22.953c17.92,11.863,41.05,14.774,62.222,15.253
		c21.985,0.479,50.214-1.032,69.39-13.595C173.133,40.638,175.165,58.543,176.865,75.712z M173.355,68.454
		c0.111-4.163,0.185-8.253-0.148-12.416c-0.074-0.995-1.589-1.032-1.589,0c-0.074,4.163,0.259,8.29,0.665,12.416
		C172.357,69.154,173.318,69.154,173.355,68.454z M170.214,54.196c0.111-0.958-1.441-1.142-1.663-0.221
		c-0.665,2.91-0.591,5.821-0.074,8.769c0.185,1.105,1.884,0.626,1.7-0.479C169.771,59.575,169.882,56.886,170.214,54.196z
		 M106.994,45.501c0.998-0.111,1.441-1.732,0.259-1.916c-3.695-0.626-7.39-0.921-11.011-1.99c-1.404-0.405-1.958,1.695-0.591,2.137
		C99.235,44.912,103.189,45.87,106.994,45.501z M69.306,65.691c0.369-3.279,0.665-7.111-0.333-10.316
		c-0.259-0.847-1.515-0.7-1.552,0.184c-0.074,3.353,0.554,6.779,0.591,10.132C68.05,66.538,69.195,66.501,69.306,65.691z"/>
	<path style="fill:#1D1D1B;" d="M169.364,138.824c3.436-0.037,6.429,3.684,4.766,6.889c-0.406,0.737-1.404,0.184-1.256-0.516
		c0.37-2.321-0.961-4.826-3.51-4.9C168.44,140.26,168.44,138.824,169.364,138.824z"/>
	<path style="fill:#1D1D1B;" d="M173.207,56.038c0.332,4.163,0.259,8.253,0.148,12.416c-0.037,0.7-0.998,0.7-1.072,0
		c-0.406-4.126-0.739-8.253-0.665-12.416C171.618,55.007,173.133,55.043,173.207,56.038z"/>
	<path style="fill:#1D1D1B;" d="M171.951,238.483c0.296-0.626,1.404-0.332,1.367,0.368c-0.406,4.458-3.51,8.179-7.057,10.684
		c-1.035,0.7-2.032-0.995-0.998-1.732C168.625,245.446,170.288,242.167,171.951,238.483z"/>
	<path style="fill:#1D1D1B;" d="M172.616,14.59c0.628,0.7-0.333,1.621-1.035,1.032c-2.771-2.395-5.579-4.605-8.905-6.263
		c-0.517-0.258-0.148-1.216,0.443-0.995C166.667,9.764,170.029,11.717,172.616,14.59z"/>
	<path style="fill:#1D1D1B;" d="M168.551,53.975c0.222-0.921,1.773-0.737,1.663,0.221c-0.333,2.689-0.443,5.379-0.037,8.069
		c0.185,1.105-1.515,1.584-1.7,0.479C167.96,59.796,167.886,56.886,168.551,53.975z"/>
	<path style="fill:#1D1D1B;" d="M167.886,237.856c0.665-0.737,1.7,0.332,1.072,1.068c-0.813,0.995-1.589,1.953-2.402,2.911
		c-0.369,0.442-0.776,0.847-1.182,1.29c-0.222,0.258-0.443,0.479-0.702,0.737c-0.037,0.074-0.037,0.074-0.074,0.111
		c0.074,0.184,0,0.405-0.148,0.516c-0.222,0.221-0.369,0.295-0.665,0.295c-0.296,0-0.517-0.184-0.591-0.442
		c-0.259-0.958,0.554-1.621,1.109-2.321C165.448,240.583,166.667,239.22,167.886,237.856z"/>
	<path style="fill:#1D1D1B;" d="M168.404,144.35c1.995,3.279-1.182,8.548-2.402,11.605c-1.367,3.5-2.66,8.4-5.764,10.832
		c-6.466,5.047-19.694-1.953-25.864-5.232c-0.813-0.147-1.589-0.847-1.441-1.916c1.035-7.405,2.291-21.627,11.861-22.953
		c4.471-0.626,9.791,1.105,13.967,2.469C161.642,140.076,166.704,141.587,168.404,144.35z M163.046,153.892
		c1.035-2.726,2.956-5.6,1.478-8.032c-2.254-3.721-13.634-6.447-17.957-6.153c-8.535,0.553-9.681,13.595-10.567,20.227
		c5.431,2.137,12.969,5.6,18.585,5.011C160.164,164.392,161.494,157.908,163.046,153.892z"/>
	<path style="fill:#1D1D1B;" d="M168.44,15.032c0.628,0.479-0.148,1.326-0.776,1.032c-5.099-2.542-10.124-4.495-15.851-4.937
		c-0.924-0.037-0.961-1.474,0-1.437C157.836,9.838,163.674,11.311,168.44,15.032z"/>
	<path style="fill:#1D1D1B;" d="M165.448,195.856c0.628,2.063,0.443,3.942-0.333,5.932c-0.37,1.068-2.069,0.626-1.7-0.442
		c0.665-1.732,0.776-3.5,0.591-5.305C163.933,195.193,165.226,195.082,165.448,195.856z"/>
	<path style="fill:#CCECF9;" d="M164.524,145.86c1.478,2.432-0.443,5.305-1.478,8.032c-1.552,4.016-2.882,10.5-8.461,11.053
		c-5.616,0.59-13.154-2.874-18.585-5.011c0.887-6.632,2.032-19.674,10.567-20.227C150.89,139.413,162.27,142.139,164.524,145.86z"/>
	<path style="fill:#1D1D1B;" d="M156.58,189.519c2.328,2.616,5.542,5.49,5.395,9.284c-0.369,9.211-17.181,17.279-24.091,20.521
		c-0.591,0.295-1.072-0.074-1.219-0.553c-0.259-0.037-0.554-0.11-0.813-0.368c-5.986-5.563-18.437-16.948-13.265-26.121
		c2.587-4.532,8.35-8.99,12.563-11.974c2.697-1.879,5.579-3.132,8.868-2.174C149.227,179.682,153.181,185.724,156.58,189.519z
		 M154.437,204.772c7.205-6.742-1.441-14.884-6.466-19.932c-3.99-4.016-7.685-4.605-12.267-0.884
		c-2.18,1.768-6.872,4.937-8.092,7.479l-0.739,11.458c1.404,1.99,2.882,3.905,4.434,5.784c2.143,2.616,4.397,5.084,6.54,7.737
		c0.185,0.221,0.259,0.442,0.296,0.663C143.906,213.393,149.449,209.488,154.437,204.772z"/>
	<path style="fill:#CCECF9;" d="M147.971,184.84c5.025,5.047,13.671,13.19,6.466,19.932c-4.988,4.716-10.531,8.621-16.294,12.306
		c-0.037-0.221-0.111-0.442-0.296-0.663c-2.143-2.653-4.397-5.121-6.54-7.737c-1.552-1.879-3.03-3.795-4.434-5.784l0.739-11.458
		c1.219-2.542,5.912-5.711,8.092-7.479C140.285,180.235,143.98,180.824,147.971,184.84z"/>
	<path style="fill:#1D1D1B;" d="M154.363,80.944c0.554,0.774-0.665,1.732-1.293,0.995c-2.18-2.542-4.766-4.311-8.166-4.642
		c-0.776-0.074-0.813-1.216,0-1.179C148.636,76.191,152.294,77.812,154.363,80.944z"/>
	<path style="fill:#1D1D1B;" d="M116.084,185.761c0.665-0.7,1.884,0.221,1.33,1.031c-1.626,2.247-2.217,4.679-1.848,7.405
		c0.111,0.884-1.256,0.958-1.478,0.221C113.128,191.361,113.904,188.082,116.084,185.761z"/>
	<path style="fill:#1D1D1B;" d="M115.603,182.519c0.776-0.295,1.256,0.958,0.554,1.29c-1.663,0.737-2.845,1.916-3.436,3.647
		c-0.259,0.847-1.589,0.516-1.33-0.368C112.056,184.877,113.46,183.329,115.603,182.519z"/>
	<path style="fill:#1D1D1B;" d="M110.8,119.15c1.773,1.621,4.286,3.463,3.695,6.226c-0.702,3.5-6.06,6.853-8.461,9.137
		c-1.958,1.879-5.099,6.374-8.166,6.779c-3.104,0.405-5.542-2.874-7.39-4.826c-3.436-3.684-6.392-7.774-8.683-12.269
		c-0.333-0.626,0.111-1.105,0.628-1.179c-0.185-0.479-0.148-0.995,0.296-1.437c4.064-4.126,12.304-14.442,18.881-10.537
		C104.962,112.997,107.918,116.534,110.8,119.15z M109.802,126.555c1.737-3.168-0.333-4.458-2.66-6.595
		c-1.774-1.621-3.917-4.421-6.023-5.453c-6.096-3.058-12.341,5.342-16.331,9.1c-0.333,0.332-0.739,0.442-1.108,0.405
		c3.215,4.642,7.168,11.163,12.674,12.674c1.774,1.216,3.141,0.884,4.101-0.995c1.145-1.142,2.254-2.247,3.399-3.353
		C105.553,130.681,108.657,128.618,109.802,126.555z"/>
	<path style="fill:#CCECF9;" d="M107.142,119.96c2.328,2.137,4.397,3.426,2.66,6.595c-1.146,2.063-4.249,4.126-5.949,5.784
		c-1.146,1.105-2.254,2.21-3.399,3.353c-0.961,1.879-2.328,2.21-4.101,0.995c-5.505-1.51-9.459-8.032-12.674-12.674
		c0.369,0.037,0.776-0.074,1.108-0.405c3.991-3.758,10.235-12.158,16.331-9.1C103.225,115.539,105.369,118.339,107.142,119.96z"/>
	<path style="fill:#1D1D1B;" d="M107.253,43.585c1.182,0.184,0.739,1.805-0.259,1.916c-3.806,0.368-7.759-0.589-11.343-1.768
		c-1.367-0.442-0.813-2.542,0.591-2.137C99.863,42.664,103.558,42.959,107.253,43.585z"/>
	<path style="fill:#1D1D1B;" d="M106.883,213.393c1.847,3.132-0.961,7.295-2.254,10.058c-1.921,4.126-3.51,10.058-7.131,13.006
		c-6.577,5.379-19.583-2.653-25.458-6.263c-0.185-0.147-0.296-0.332-0.369-0.553c-0.407-0.258-0.702-0.663-0.776-1.253
		c-0.369-5.232,2.513-11.79,4.582-16.505c1.182-2.653,2.697-5.342,5.727-6.226c4.36-1.253,10.567,1.326,14.706,2.616
		C99.013,209.23,104.999,210.261,106.883,213.393z M102.597,219.767c0.813-6.779-4.286-7.221-8.683-8.548
		c-2.512-0.737-6.134-2.284-8.794-2.174c-6.651,0.332-7.02,5.342-8.646,10.095c-1.035,2.984-2.476,5.969-2.291,9.247
		c0.037,0.221,0,0.405-0.074,0.59c5.062,2.247,11.159,5.305,16.516,5.563c5.801,0.295,6.392-2.616,8.313-6.779
		C99.974,225.514,102.302,222.198,102.597,219.767z"/>
	<path style="fill:#1D1D1B;" d="M104.519,242.204c0.443-0.663,1.515-0.074,1.072,0.626c-1.108,1.879-2.882,2.8-5.062,2.8
		c-0.665,0-0.628-0.958,0-0.995C102.228,244.451,103.595,243.567,104.519,242.204z"/>
	<path style="fill:#1D1D1B;" d="M102.376,237.046c0.406-0.479,1.219,0,1.035,0.589c-0.739,2.358-3.252,3.5-5.653,3.279
		c-0.776-0.074-0.813-1.253,0-1.29C99.789,239.625,101.119,238.483,102.376,237.046z"/>
	<path style="fill:#CCECF9;" d="M93.914,211.219c4.397,1.326,9.496,1.768,8.683,8.548c-0.296,2.432-2.623,5.747-3.658,7.995
		c-1.921,4.163-2.512,7.074-8.313,6.779c-5.358-0.258-11.454-3.316-16.516-5.563c0.074-0.184,0.111-0.368,0.074-0.59
		c-0.185-3.279,1.256-6.263,2.291-9.247c1.626-4.753,1.995-9.763,8.646-10.095C87.781,208.935,91.402,210.482,93.914,211.219z"/>
	<path style="fill:#1D1D1B;" d="M99.161,148.329c0.85-0.516,1.515,0.737,0.739,1.253c-2.919,2.063-6.983,1.437-9.237-1.289
		c-0.517-0.663,0.369-1.584,0.961-0.958C93.619,149.434,96.722,149.766,99.161,148.329z"/>
	<path style="fill:#1D1D1B;" d="M95.725,143.613c0.776-0.479,1.441,0.7,0.702,1.179c-2.106,1.363-4.729,0.995-6.392-0.884
		c-0.554-0.626,0.369-1.584,0.961-0.958C92.252,144.276,94.136,144.534,95.725,143.613z"/>
	<path style="fill:#1D1D1B;" d="M91.956,88.091c0.813,0.221,0.443,1.363-0.369,1.253c-2.845-0.442-5.468-1.4-8.018-2.763
		c-0.776-0.405-0.111-1.511,0.665-1.142C86.672,86.654,89.296,87.502,91.956,88.091z"/>
	<path style="fill:#1D1D1B;" d="M87.744,90.597c0.591,0.11,0.443,1.142-0.148,1.068c-4.027-0.553-7.575-1.99-10.863-4.347
		c-0.517-0.405-0.037-1.253,0.554-0.884C80.465,88.46,84.012,89.823,87.744,90.597z"/>
	<path style="fill:#1D1D1B;" d="M71.634,21.222c0.961,0.258,0.554,1.658-0.369,1.437c-3.362-0.737-6.466-2.026-9.459-3.721
		c-0.776-0.442-0.074-1.621,0.739-1.216C65.427,19.269,68.493,20.375,71.634,21.222z"/>
	<path style="fill:#1D1D1B;" d="M68.974,55.375c0.998,3.205,0.702,7.037,0.333,10.316c-0.111,0.811-1.256,0.847-1.293,0
		c-0.037-3.353-0.665-6.779-0.591-10.132C67.459,54.675,68.715,54.528,68.974,55.375z"/>
	<path style="fill:#1D1D1B;" d="M67.015,22.622c0.924,0.332,0.554,1.732-0.369,1.437c-3.658-1.105-6.91-2.763-9.939-5.048
		c-0.887-0.626-0.074-2.1,0.85-1.474C60.512,19.564,63.727,21.296,67.015,22.622z"/>
	<path style="fill:#1D1D1B;" d="M63.062,193.24c0.48,1.142-1.146,2.174-1.737,0.995c-1.552-3.132-1.847-6.521-0.443-9.763
		c0.443-1.068,2.106-0.295,1.811,0.774C62.027,187.935,61.953,190.661,63.062,193.24z"/>
	<path style="fill:#1D1D1B;" d="M60.993,138.971c0.333-0.774,1.626-0.221,1.367,0.589c-0.961,3.021-2.106,5.969-3.362,8.916
		c-0.296,0.737-1.515,0.184-1.293-0.553C58.665,144.866,59.736,141.918,60.993,138.971z"/>
	<path style="fill:#1D1D1B;" d="M57.593,136.797c0.296-0.7,1.404-0.184,1.219,0.516c-1.293,4.237-2.513,8.4-3.325,12.784
		c-0.148,0.7-1.293,0.516-1.219-0.147C54.638,145.418,55.635,140.924,57.593,136.797z"/>
</g>
<g>
</g>
<g>
</g>
<g>
</g>
<g>
</g>
<g>
</g>
<g>
</g>
<g>
</g>
<g>
</g>
<g>
</g>
<g>
</g>
<g>
</g>
<g>
</g>
<g>
</g>
<g>
</g>
<g>
</g>
</svg>
