<?xml version="1.0" encoding="iso-8859-1"?>
<!-- Generator: Adobe Illustrator 19.0.0, SVG Export Plug-In . SVG Version: 6.00 Build 0)  -->
<svg version="1.1" id="Layer_1" xmlns="http://www.w3.org/2000/svg" xmlns:xlink="http://www.w3.org/1999/xlink" x="0px" y="0px"
	 viewBox="0 0 282.966 282.966" style="enable-background:new 0 0 282.966 282.966;" xml:space="preserve">
<g>
	<path style="fill:#1D1D1B;" d="M266.027,233.002c2.17,0.804,2.331,3.818,0,4.581c-12.658,3.978-15.954,13.462-14.748,24.835
		c0.04,0.482-0.121,0.844-0.321,1.165c0.522,2.21-2.934,3.014-3.818,0.804c-3.175-7.836-3.657-15.471-1.527-23.388
		c-20.294,5.666-38.016,15.431-54.693,28.451c-0.563,0.442-1.206,0.241-1.607-0.121c-0.563,0.442-1.326,0.643-2.049,0.241
		c-9.564-5.586-9.966-14.507-8.278-23.83c-15.672,4.501-25.759,16.074-37.413,27.085c-0.563,0.563-1.447,0.322-1.889-0.201
		c-0.482,0.563-1.286,0.804-2.049,0.322c-10.649-7.073-13.663-19.651-9.564-31.023c-24.955,5.224-45.129,19.57-59.957,40.507
		c-0.603,0.844-1.728,0.603-2.09-0.121c-0.402,0.161-0.884,0.161-1.366-0.04c-14.989-6.711-22.424-21.982-20.575-37.654
		c-10.931,6.349-19.329,14.989-26.442,25.598c-0.201,0.281-0.442,0.362-0.683,0.402c-0.563,0.804-1.889,0.402-1.688-0.763
		c2.693-15.713,12.98-29.014,26.121-37.855c-4.501-7.354-7.515-16.396-8.118-24.915c-0.04-0.321,0.04-0.563,0.121-0.804
		c-0.804-0.603-0.643-2.13,0.723-2.21c38.779-2.25,78.242-1.728,117.624-0.12c-0.121-3.054-0.201-6.148-0.322-9.243
		c-0.08-0.08-0.201-0.121-0.322-0.201c-28.291-25.116-87.163-20.856-117.865-1.969c-0.321,0.201-0.643,0.281-0.964,0.281
		c-1.045,0-1.969-0.924-2.09-2.049C23.024,115.619,71.528,22.75,150.574,7.801c0.04-1.206,0.121-2.411,0.161-3.617
		c0-0.121,0-0.201,0-0.281c0.04-0.924,0.08-1.849,0.121-2.773c0.08-1.487,2.331-1.527,2.331,0c0.04,0.603,0.04,1.246,0.04,1.849
		c7.475-0.442,14.989-0.322,22.504-0.201c5.586,0.08,11.975-0.603,17.24,1.527c1.206,0.522,2.25,2.371,0.884,3.416
		c-4.903,3.818-9.805,7.635-14.668,11.413c6.068,2.21,11.895,4.822,17.561,8.037c1.407,0.804,1.286,3.456-0.482,3.697
		c-14.025,2.049-27.969,2.652-42.115,1.648c-0.241-0.04-0.442-0.121-0.643-0.201c0,2.13,0,4.26,0,6.389
		c29.737,11.453,52.965,27.849,69.32,55.697c17.28,29.416,25.88,63.051,28.09,96.928c0.08,1.286-1.447,2.492-2.692,2.009
		c-30.822-11.413-62.408-11.212-93.11,0.482c0.12,3.416,0.201,6.872,0.322,10.287c32.39,1.366,64.739,3.416,96.606,5.345
		c1.728,0.08,2.21,1.929,1.567,3.054c0.08,0.121,0.161,0.281,0.161,0.442c0,0.08,0,0.161,0,0.241c0.08,1.969-2.17,4.822-3.094,6.47
		c-1.688,3.014-3.376,6.389-5.546,9.202C252.404,229.224,259.557,230.631,266.027,233.002z M248.064,236.217
		c1.366-0.362,2.934,0.964,2.411,2.451c-0.844,2.411-1.366,4.742-1.728,7.033c2.13-4.139,5.546-7.635,10.006-10.087
		c-27.125-7.675-47.138,3.697-67.833,22.183c-0.08,0.04-0.121,0.04-0.201,0.08c-0.643,1.045-2.331,1.366-3.295,0.04
		c-3.335-4.621-4.421-9.685-3.657-14.427c0.643-3.858,2.491-7.515,5.264-10.609c-19.209,1.487-35.484,12.056-46.214,28.371
		c-0.523,0.764-1.366,0.683-1.889,0.201c-0.884,0.08-1.848-0.322-2.25-1.366c-4.501-11.413-0.723-22.625,8.519-29.295
		c-33.314-7.434-63.453,7.033-81.657,36.047c-0.442,0.723-1.165,0.804-1.728,0.563c-0.603,0.201-1.326,0.161-1.848-0.322
		c-10.81-9.243-12.015-25.639-6.55-38.136c-14.869,5.867-25.478,16.516-32.912,30.059c6.028-7.957,13.944-14.346,22.986-19.128
		c1.366-0.764,2.813,0.442,2.532,1.929c-3.295,16.275,4.099,29.737,18.365,37.533c0.241,0.121,0.402,0.281,0.563,0.482
		c13.944-23.026,37.533-37.855,63.895-42.557c1.768-0.281,3.135,1.326,2.291,2.974c-5.626,11.051-2.17,22.022,6.631,29.979
		c0.161,0.161,0.281,0.362,0.362,0.522c10.529-13.543,23.79-25.92,40.949-29.778c1.567-0.322,2.813,0.964,2.492,2.492
		c-2.049,9.886-2.532,16.074,5.907,23.268c0.241,0.201,0.362,0.442,0.482,0.683C206.271,252.009,226.444,241.883,248.064,236.217z
		 M247.421,217.731c0.763-1.165,1.768-3.215,3.054-4.501c-71.089-3.175-142.74-2.13-213.707-6.47
		c1.969,8.198,4.22,15.793,7.113,23.629c4.782-2.893,9.846-5.224,15.07-6.872c1.567-0.522,3.014,1.406,2.13,2.813
		c-7.957,12.9-5.104,25.839,2.853,37.533c17.32-32.792,54.653-46.214,89.855-36.127c1.728,0.522,2.371,3.295,0.522,4.179
		c-9.484,4.461-14.105,15.07-11.975,25.076c10.81-18.445,31.425-28.893,52.724-28.612c2.21,0.04,2.813,2.853,1.085,4.019
		c-8.841,5.827-9.765,14.346-5.586,23.067c9.564-18.365,30.059-26.563,50.232-26.683
		C242.237,224.844,245.09,221.187,247.421,217.731z M242.88,186.909c8.559-3.858-0.08-27.005-2.13-35.444
		c-5.626-23.067-14.708-45.972-28.451-65.463c-14.387-20.455-33.756-32.068-55.336-42.878c5.787,25.759,9.122,51.839,9.042,78.282
		c-0.04,21.58-0.241,47.098-8.961,67.432c19.932-7.193,40.507-10.087,61.725-7.354C224.033,182.127,238.942,188.637,242.88,186.909z
		 M173.56,18.41c4.782-3.737,9.604-7.515,14.427-11.252c-5.063-0.924-10.81-0.402-15.673-0.603
		c-6.39-0.241-12.739-0.603-19.048-1.326c0,0.964,0,1.889,0,2.813c0.121,0.281,0.161,0.563,0.04,0.844
		c0.04,6.51,0.121,13.02,0.161,19.49c0.201-0.04,0.402-0.08,0.683-0.08c11.654,0.884,23.268,0.683,34.841-0.603
		c-4.661-2.331-9.524-4.26-14.547-5.907C173.158,21.384,172.274,19.415,173.56,18.41z M154.914,187.19
		c14.346-43.883,8.559-98.616-1.366-142.82C153.748,91.99,153.507,139.57,154.914,187.19z M149.85,26.608
		c0.201-5.465,0.362-10.89,0.603-16.356c-33.314,12.86-62.489,29.537-83.104,59.877c-18.968,27.889-31.626,63.976-33.756,97.731
		c-1.487,23.87,5.425,14.869,22.625,10.89c11.051-2.572,22.705-3.657,33.957-4.421c22.022-1.567,43.24,0.603,60.64,14.346
		c-31.425-47.419-22.785-112.44-1.085-161.948C149.77,26.688,149.81,26.648,149.85,26.608z M151.096,183.613
		c-1.567-49.107-2.853-98.455-1.527-147.562C133.655,86.645,127.547,134.466,151.096,183.613z"/>
	<path style="fill:#33B3E2;" d="M250.475,238.668c0.522-1.487-1.045-2.813-2.411-2.451c-21.62,5.666-41.793,15.793-58.108,31.184
		c-0.121-0.241-0.241-0.482-0.482-0.683c-8.439-7.193-7.957-13.382-5.907-23.268l0.201,0.04c-0.764,4.742,0.321,9.805,3.657,14.427
		c0.964,1.326,2.652,1.005,3.295-0.04c0.08-0.04,0.12-0.04,0.201-0.08c20.696-18.485,40.708-29.858,67.833-22.183
		c-4.461,2.451-7.876,5.948-10.006,10.087C249.109,243.41,249.631,241.079,250.475,238.668z"/>
	<path style="fill:#E94B59;" d="M250.475,213.23c-1.286,1.286-2.291,3.335-3.054,4.501c-2.331,3.456-5.184,7.113-6.631,11.051
		c-20.173,0.121-40.668,8.318-50.232,26.683c-4.179-8.72-3.255-17.24,5.586-23.067c1.728-1.165,1.125-3.978-1.085-4.019
		c-21.298-0.281-41.914,10.167-52.724,28.612c-2.13-10.006,2.492-20.615,11.975-25.076c1.848-0.884,1.205-3.657-0.522-4.179
		c-35.203-10.087-72.535,3.335-89.855,36.127c-7.957-11.694-10.81-24.634-2.853-37.533c0.884-1.406-0.563-3.335-2.13-2.813
		c-5.224,1.648-10.288,3.978-15.07,6.872c-2.893-7.836-5.144-15.431-7.113-23.629C107.736,211.1,179.387,210.056,250.475,213.23z
		 M233.999,217.972c0.924,0.04,1.165-1.487,0.241-1.607c-3.215-0.442-6.309-0.321-9.524,0.161c-1.045,0.161-0.804,1.969,0.241,1.848
		C227.971,217.972,230.985,217.932,233.999,217.972z M233.517,222.594c1.206-0.08,1.246-1.889,0-1.929
		c-3.456-0.08-6.912,0.402-10.287,1.085c-1.165,0.241-0.683,1.969,0.482,1.768C226.967,222.995,230.222,222.794,233.517,222.594z
		 M174.243,229.385c0.964,0,0.924-1.366,0-1.447c-3.014-0.322-5.867,0.08-8.72,1.005c-0.924,0.322-0.563,1.688,0.362,1.447
		C168.617,229.666,171.43,229.385,174.243,229.385z M94.354,230.389c0.723,0.04,0.924-1.165,0.201-1.286
		c-5.787-0.764-11.373-0.322-16.958,1.286c-0.804,0.201-0.482,1.407,0.322,1.246C83.303,230.309,88.848,229.988,94.354,230.389z
		 M87.04,233.886c0.804-0.281,0.482-1.487-0.362-1.286c-3.617,0.924-6.912,2.612-9.845,4.862c-0.603,0.482-0.08,1.487,0.643,1.085
		C80.49,236.618,83.664,235.132,87.04,233.886z M59.513,214.315c0.764,0.281,1.286-1.005,0.563-1.326
		c-2.13-0.924-4.3-1.527-6.55-1.849c0.482-0.12,0.924-0.201,1.366-0.321c0.924-0.281,0.522-1.688-0.402-1.447
		c-3.416,0.924-6.832,1.206-10.328,1.165c-0.603,0-0.764,0.965-0.161,1.045c1.889,0.321,3.737,0.362,5.586,0.201
		c0.08,0.241,0.241,0.482,0.603,0.482C53.405,212.386,56.539,213.11,59.513,214.315z"/>
	<path style="fill:#CCECF8;" d="M240.75,151.465c2.049,8.439,10.689,31.586,2.13,35.444c-3.938,1.728-18.847-4.782-24.111-5.425
		c-21.218-2.733-41.793,0.161-61.725,7.354c8.72-20.334,8.921-45.852,8.961-67.432c0.08-26.442-3.255-52.523-9.042-78.282
		c21.58,10.81,40.949,22.424,55.336,42.878C226.042,105.493,235.124,128.398,240.75,151.465z M238.861,161.351
		c0.362-4.139-0.764-7.876-3.255-11.212c-0.844-1.125-2.733-0.08-1.929,1.125c2.09,2.974,3.215,6.47,3.295,10.087
		C236.973,162.596,238.741,162.556,238.861,161.351z M184.972,74.429c0.482,0.964,2.009,0.281,1.728-0.723
		c-1.286-4.34-4.179-7.756-7.836-10.328c-0.924-0.643-2.13,0.884-1.246,1.607C180.833,67.517,183.124,70.812,184.972,74.429z
		 M184.932,66.914c0.723,1.045,2.25,0.161,1.688-1.005c-2.09-4.3-6.108-7.434-10.529-9.162c-1.005-0.402-1.728,1.286-0.723,1.728
		C179.427,60.324,182.401,63.257,184.932,66.914z M177.458,137.721c0.121-0.924-1.487-1.165-1.648-0.241
		c-0.643,3.416-1.005,6.831-1.326,10.288c-0.04,0.763,1.165,0.924,1.326,0.201C176.493,144.553,177.096,141.177,177.458,137.721z
		 M170.867,149.978c0.643-4.179,1.165-8.76,0.201-12.94c-0.161-0.763-1.246-0.563-1.286,0.201c-0.241,4.179,0.08,8.359-0.402,12.538
		C169.26,150.661,170.747,150.862,170.867,149.978z"/>
	<path style="fill:#1D1D1B;" d="M235.606,150.139c2.492,3.335,3.617,7.073,3.255,11.212c-0.12,1.206-1.889,1.246-1.889,0
		c-0.08-3.617-1.206-7.113-3.295-10.087C232.874,150.058,234.763,149.014,235.606,150.139z"/>
	<path style="fill:#1D1D1B;" d="M234.24,216.365c0.924,0.121,0.683,1.648-0.241,1.607c-3.014-0.04-6.028,0-9.042,0.402
		c-1.045,0.121-1.286-1.688-0.241-1.848C227.931,216.043,231.025,215.923,234.24,216.365z"/>
	<path style="fill:#1D1D1B;" d="M233.517,220.665c1.246,0.04,1.206,1.849,0,1.929c-3.295,0.201-6.55,0.402-9.805,0.924
		c-1.165,0.201-1.648-1.527-0.482-1.768C226.605,221.066,230.061,220.584,233.517,220.665z"/>
	<path style="fill:#E94B59;" d="M187.986,7.158c-4.822,3.737-9.645,7.515-14.427,11.252c-1.286,1.005-0.402,2.974,0.884,3.376
		c5.023,1.648,9.886,3.576,14.547,5.907c-11.574,1.286-23.187,1.487-34.841,0.603c-0.281,0-0.482,0.04-0.683,0.08
		c-0.04-6.47-0.121-12.98-0.161-19.49c0.121-0.281,0.08-0.563-0.04-0.844c0-0.924,0-1.848,0-2.813
		c6.309,0.723,12.658,1.085,19.048,1.326C177.176,6.756,182.923,6.234,187.986,7.158z M162.348,27.211
		c0.241-3.215-0.442-6.068-1.889-8.961c-0.442-0.924-1.768-0.121-1.366,0.804c1.085,2.572,1.648,5.385,1.808,8.158
		C160.982,28.175,162.308,28.175,162.348,27.211z M157.646,14.673c0.04-0.603-0.844-0.563-0.924,0
		c-0.241,1.849-0.482,3.657-0.603,5.505c-0.04,0.683,0.965,0.643,1.045,0C157.365,18.37,157.526,16.521,157.646,14.673z"/>
	<path style="fill:#1D1D1B;" d="M186.7,73.706c0.281,1.005-1.246,1.688-1.728,0.723c-1.848-3.617-4.139-6.912-7.354-9.444
		c-0.884-0.723,0.321-2.25,1.246-1.607C182.521,65.95,185.415,69.366,186.7,73.706z"/>
	<path style="fill:#1D1D1B;" d="M186.62,65.91c0.563,1.165-0.964,2.049-1.688,1.005c-2.532-3.657-5.505-6.59-9.564-8.439
		c-1.005-0.442-0.281-2.13,0.723-1.728C180.512,58.475,184.53,61.61,186.62,65.91z"/>
	<path style="fill:#33B3E2;" d="M189.031,232.881c-2.773,3.094-4.621,6.751-5.264,10.609l-0.201-0.04
		c0.322-1.527-0.924-2.813-2.492-2.492c-17.159,3.858-30.421,16.235-40.949,29.778c-0.08-0.161-0.201-0.362-0.362-0.522
		c-8.801-7.957-12.257-18.927-6.631-29.979c0.844-1.648-0.522-3.255-2.291-2.974c-26.362,4.702-49.951,19.53-63.895,42.557
		c-0.161-0.201-0.321-0.362-0.563-0.482c-14.266-7.796-21.66-21.258-18.365-37.533c0.281-1.487-1.165-2.693-2.532-1.929
		c-9.042,4.782-16.958,11.172-22.986,19.128c7.434-13.543,18.043-24.192,32.912-30.059c-5.465,12.498-4.26,28.893,6.55,38.136
		c0.522,0.482,1.246,0.522,1.848,0.322c0.563,0.241,1.286,0.161,1.728-0.563c18.204-29.014,48.343-43.481,81.657-36.047
		c-9.243,6.671-13.02,17.883-8.519,29.295c0.402,1.045,1.366,1.447,2.25,1.366c0.523,0.482,1.366,0.563,1.889-0.201
		C153.547,244.937,169.822,234.368,189.031,232.881z"/>
	<path style="fill:#1D1D1B;" d="M175.81,137.48c0.161-0.924,1.768-0.683,1.648,0.241c-0.362,3.456-0.964,6.832-1.648,10.247
		c-0.161,0.723-1.366,0.563-1.326-0.201C174.806,144.312,175.167,140.896,175.81,137.48z"/>
	<path style="fill:#1D1D1B;" d="M174.243,227.938c0.924,0.08,0.964,1.447,0,1.447c-2.813,0-5.626,0.281-8.359,1.005
		c-0.924,0.241-1.286-1.125-0.362-1.447C168.376,228.019,171.229,227.617,174.243,227.938z"/>
	<path style="fill:#1D1D1B;" d="M171.068,137.038c0.964,4.179,0.442,8.761-0.201,12.94c-0.121,0.884-1.607,0.683-1.487-0.201
		c0.482-4.179,0.161-8.359,0.402-12.538C169.822,136.476,170.907,136.275,171.068,137.038z"/>
	<path style="fill:#1D1D1B;" d="M160.459,18.249c1.447,2.893,2.13,5.747,1.889,8.961c-0.04,0.964-1.366,0.964-1.447,0
		c-0.161-2.773-0.723-5.586-1.808-8.158C158.691,18.129,160.017,17.325,160.459,18.249z"/>
	<path style="fill:#1D1D1B;" d="M156.722,14.673c0.08-0.563,0.965-0.603,0.924,0c-0.121,1.849-0.281,3.697-0.482,5.505
		c-0.08,0.643-1.085,0.683-1.045,0C156.24,18.33,156.481,16.521,156.722,14.673z"/>
	<path style="fill:#CCECF8;" d="M150.453,10.252c-0.241,5.465-0.402,10.89-0.603,16.356c-0.04,0.04-0.08,0.08-0.121,0.121
		c-21.7,49.509-30.34,114.529,1.085,161.948c-17.4-13.743-38.618-15.913-60.64-14.346c-11.252,0.764-22.906,1.849-33.957,4.421
		c-17.199,3.978-24.111,12.98-22.625-10.89c2.13-33.756,14.788-69.843,33.756-97.731C87.964,39.789,117.139,23.112,150.453,10.252z
		 M139.362,47.786c0.482-0.764-0.683-1.688-1.286-0.964c-2.612,3.135-3.978,6.992-4.461,11.051c-0.12,0.924,1.487,1.125,1.648,0.201
		C135.946,54.336,137.433,51.041,139.362,47.786z M133.294,54.778c0.442-0.844-0.764-1.527-1.286-0.723
		c-2.13,3.255-3.135,6.952-3.014,10.85c0.04,0.965,1.447,0.965,1.487,0C130.682,61.328,131.646,57.993,133.294,54.778z
		 M98.011,140.494c0.241,0.964,1.688,0.563,1.487-0.402c-0.402-1.969-0.482-3.858-0.321-5.867c0.08-0.844-1.366-1.045-1.487-0.201
		C97.368,136.234,97.488,138.324,98.011,140.494z M98.935,50.157c0.362-0.563-0.522-1.045-0.884-0.522
		c-0.683,1.005-1.326,2.009-2.009,3.014c-0.362,0.563,0.523,1.085,0.884,0.522C97.609,52.166,98.252,51.161,98.935,50.157z
		 M93.389,50.84c0.643-0.643-0.362-1.648-1.045-1.005c-1.648,1.487-2.974,3.215-4.099,5.184c-0.442,0.764,0.764,1.487,1.206,0.683
		C90.536,53.934,91.862,52.327,93.389,50.84z M48.14,148.813c0.08-1.005-1.567-1.246-1.768-0.241
		c-0.643,3.175-1.125,6.349-1.567,9.524c-0.161,1.165,1.567,1.688,1.808,0.482C47.176,155.323,47.738,152.108,48.14,148.813z
		 M42.474,154.559c0.241-1.085-1.406-1.567-1.688-0.482c-0.844,3.255-0.964,6.47-0.563,9.805c0.161,1.085,1.889,1.125,1.768,0
		C41.67,160.748,41.871,157.654,42.474,154.559z"/>
	<path style="fill:#1D1D1B;" d="M138.076,46.821c0.603-0.723,1.768,0.201,1.286,0.964c-1.929,3.255-3.416,6.55-4.099,10.288
		c-0.161,0.924-1.768,0.723-1.648-0.201C134.097,53.814,135.464,49.956,138.076,46.821z"/>
	<path style="fill:#1D1D1B;" d="M132.008,54.055c0.522-0.804,1.728-0.121,1.286,0.723c-1.648,3.215-2.612,6.55-2.813,10.127
		c-0.04,0.965-1.447,0.965-1.487,0C128.873,61.007,129.878,57.31,132.008,54.055z"/>
	<path style="fill:#1D1D1B;" d="M99.498,140.092c0.201,0.964-1.246,1.366-1.487,0.402c-0.522-2.17-0.643-4.26-0.321-6.47
		c0.12-0.844,1.567-0.643,1.487,0.201C99.015,136.234,99.096,138.123,99.498,140.092z"/>
	<path style="fill:#1D1D1B;" d="M98.051,49.634c0.362-0.522,1.246-0.04,0.884,0.522c-0.683,1.005-1.326,2.009-2.009,3.014
		c-0.362,0.563-1.246,0.04-0.884-0.522C96.725,51.644,97.368,50.639,98.051,49.634z"/>
	<path style="fill:#1D1D1B;" d="M94.555,229.104c0.723,0.121,0.522,1.326-0.201,1.286c-5.505-0.402-11.051-0.08-16.436,1.246
		c-0.804,0.161-1.125-1.045-0.322-1.246C83.182,228.782,88.768,228.34,94.555,229.104z"/>
	<path style="fill:#1D1D1B;" d="M92.345,49.835c0.683-0.643,1.688,0.362,1.045,1.005c-1.527,1.487-2.853,3.094-3.938,4.862
		c-0.442,0.804-1.648,0.08-1.206-0.683C89.371,53.05,90.697,51.322,92.345,49.835z"/>
	<path style="fill:#1D1D1B;" d="M86.678,232.6c0.844-0.201,1.165,1.005,0.362,1.286c-3.376,1.246-6.55,2.733-9.564,4.661
		c-0.723,0.402-1.246-0.603-0.643-1.085C79.766,235.212,83.062,233.524,86.678,232.6z"/>
	<path style="fill:#1D1D1B;" d="M60.075,212.989c0.723,0.321,0.201,1.607-0.563,1.326c-2.974-1.206-6.108-1.929-9.323-2.05
		c-0.362,0-0.522-0.241-0.603-0.482c-1.848,0.161-3.697,0.12-5.586-0.201c-0.603-0.08-0.442-1.045,0.161-1.045
		c3.496,0.04,6.912-0.241,10.328-1.165c0.924-0.241,1.326,1.165,0.402,1.447c-0.442,0.121-0.884,0.201-1.366,0.321
		C55.776,211.462,57.946,212.065,60.075,212.989z"/>
	<path style="fill:#1D1D1B;" d="M46.372,148.572c0.201-1.005,1.849-0.764,1.768,0.241c-0.402,3.295-0.964,6.51-1.527,9.765
		c-0.241,1.205-1.969,0.683-1.808-0.482C45.247,154.921,45.729,151.746,46.372,148.572z"/>
	<path style="fill:#1D1D1B;" d="M40.786,154.077c0.281-1.085,1.929-0.603,1.688,0.482c-0.603,3.094-0.804,6.189-0.482,9.323
		c0.121,1.125-1.607,1.085-1.768,0C39.822,160.547,39.942,157.332,40.786,154.077z"/>
</g>
<g>
</g>
<g>
</g>
<g>
</g>
<g>
</g>
<g>
</g>
<g>
</g>
<g>
</g>
<g>
</g>
<g>
</g>
<g>
</g>
<g>
</g>
<g>
</g>
<g>
</g>
<g>
</g>
<g>
</g>
</svg>
