<?xml version="1.0" encoding="iso-8859-1"?>
<!-- Generator: Adobe Illustrator 19.0.0, SVG Export Plug-In . SVG Version: 6.00 Build 0)  -->
<svg version="1.1" id="Layer_1" xmlns="http://www.w3.org/2000/svg" xmlns:xlink="http://www.w3.org/1999/xlink" x="0px" y="0px"
	 viewBox="0 0 252.583 252.583" style="enable-background:new 0 0 252.583 252.583;" xml:space="preserve">
<g>
	<path style="fill:#1D1D1B;" d="M238.518,119.337c0.241,33.836,1.527,68.838-6.269,102.031c-0.121,0.563-0.603,0.764-1.125,0.804
		c-10.77,37.734-71.973,42.878-82.501,1.085c-14.587-1.808-25.598-14.186-27.567-29.054c-0.121-0.844,0.723-1.165,1.447-1.005
		c0.04-0.402,0.281-0.764,0.723-0.844c2.451-0.442,4.983-0.643,7.434-1.005c2.291-0.322,4.661-1.165,6.952-0.964
		c0.522,0.04,0.844,0.321,1.085,0.683c3.175-0.442,6.349-0.844,9.444-1.406c9.042-1.728,18.043-3.657,27.165-5.144
		c0.563-0.08,1.045,0.04,1.407,0.321c0.804,0.04,1.567,0.442,1.929,1.366c4.581,11.855,0.322,24.272-8.801,31.385
		c5.546,5.787,12.819,11.373,21.258,10.931c9.323-0.442,13.824-9.162,16.356-17.159c8.519-66.266-0.522-133.778,1.045-200.406
		c0-0.201,0.08-0.362,0.161-0.563c-0.362,0-0.683-0.201-0.764-0.683c-0.764-5.586,6.229-7.595,10.489-8.76
		c6.189-1.688,13.06-1.447,17.762,3.376c0.884,0.924,0.643,2.009-0.08,2.652c0.603,0.161,1.125,0.603,1.165,1.447
		C239.683,45.154,238.277,82.486,238.518,119.337z M233.013,51.342c0.04-13.542,0.281-27.125,0.884-40.708
		c-5.988,4.782-16.315,8.198-22.142,2.893c0.683,12.216,1.045,24.473,1.286,36.73C219.269,54.155,226.422,55.24,233.013,51.342z
		 M230.521,213.974c4.903-52.643,2.451-105.045,2.492-157.608c-5.465,3.376-14.346,1.286-19.892-2.813
		c0.402,21.58,0.442,43.2,0.844,64.699c0.522,28.773,3.577,58.671-2.572,87.002c-0.04,0.281-0.08,0.563-0.08,0.844
		c-0.04,0.804-0.08,1.607-0.12,2.451c0,0.12,0.04,0.201,0.04,0.322c0.08,1.447-0.04,2.934-0.322,4.42c0,0.04,0,0.04,0,0.08v0.04
		c-1.567,8.68-8.278,17.44-16.918,18.847c-10.368,1.728-20.575-4.943-26.402-13.101c-3.416,2.17-7.354,3.617-11.694,4.139
		c-1.849,0.201-3.576,0.201-5.345,0.121c9.162,15.632,22.866,27.366,42.115,25.88c19.57-1.487,31.666-16.798,36.77-34.359
		C229.597,214.416,230.039,214.094,230.521,213.974z M233.133,6.736c-3.496-2.813-7.515-3.416-11.935-2.692
		c-2.773,0.482-10.529,1.648-11.172,5.224c0.08,0,0.161-0.04,0.241,0C218.706,15.296,225.618,11.961,233.133,6.736z
		 M155.093,219.319c15.632-1.607,24.352-16.677,19.892-31.063c-15.391,3.416-35.162,9.524-50.835,6.389
		c-0.201-0.04-0.442-0.04-0.643-0.08C127.485,209.312,138.817,221.006,155.093,219.319z"/>
	<path style="fill:#F0954F;" d="M233.897,10.634c-0.603,13.583-0.844,27.166-0.884,40.708c-6.59,3.898-13.743,2.813-19.972-1.085
		c-0.241-12.257-0.603-24.513-1.286-36.73C217.581,18.832,227.909,15.416,233.897,10.634z M229.597,41.577
		c0.402-3.014,0.683-6.028,0.683-9.042c0-1.005-1.406-0.964-1.527,0c-0.402,3.014-0.482,6.028-0.442,9.042
		C228.311,42.421,229.476,42.381,229.597,41.577z M228.11,38.081c0.04-1.366,0.08-2.693,0.04-4.019c-0.04-0.844-1.246-0.844-1.286,0
		c-0.04,1.326,0,2.652,0.04,4.019C226.904,38.845,228.11,38.845,228.11,38.081z"/>
	<path style="fill:#33AA6C;" d="M233.013,56.366c-0.04,52.563,2.411,104.965-2.492,157.608c-0.482,0.12-0.924,0.442-1.085,0.964
		c-5.104,17.561-17.199,32.872-36.77,34.359c-19.249,1.487-32.952-10.247-42.115-25.88c1.768,0.08,3.496,0.08,5.345-0.121
		c4.34-0.522,8.278-1.969,11.694-4.139c5.827,8.158,16.034,14.829,26.402,13.101c8.64-1.407,15.351-10.167,16.918-18.847v-0.04
		c0-0.04,0-0.04,0-0.08c0.281-1.487,0.402-2.974,0.322-4.42c0-0.121-0.04-0.201-0.04-0.322c0.04-0.844,0.08-1.648,0.12-2.451
		c0-0.281,0.04-0.563,0.08-0.844c6.148-28.331,3.094-58.229,2.572-87.002c-0.402-21.499-0.442-43.119-0.844-64.699
		C218.666,57.652,227.547,59.741,233.013,56.366z M227.145,94.984c0.442-1.407,0.603-2.693,0.482-4.179
		c-0.08-0.764-1.246-0.804-1.246,0c0.04,1.326-0.121,2.572-0.523,3.858C225.618,95.466,226.864,95.788,227.145,94.984z
		 M224.252,145.538c0.08-0.884-1.407-1.085-1.607-0.201c-0.442,2.411-0.763,4.822-1.045,7.233c-0.121,0.924,1.447,1.125,1.607,0.241
		C223.609,150.4,224.011,147.989,224.252,145.538z M220.555,149.074c0.08-0.723-1.085-0.884-1.206-0.161
		c-0.764,4.059-1.286,8.158-1.728,12.257c-0.08,0.643,1.005,0.804,1.125,0.161C219.47,157.272,220.153,153.173,220.555,149.074z
		 M213.643,231.334c0.442-0.884-0.844-1.648-1.366-0.764c-1.567,2.532-3.737,4.662-6.269,6.269c-0.804,0.522-0.08,1.728,0.764,1.286
		C209.785,236.639,212.076,234.308,213.643,231.334z M212.88,237.764c0.362-0.723-0.643-1.366-1.085-0.643
		c-1.688,2.813-4.581,4.541-7.917,4.42c-0.683-0.04-0.643,0.924,0,1.005C207.615,243.068,211.312,241.18,212.88,237.764z"/>
	<path style="fill:#1D1D1B;" d="M230.28,32.536c0,3.014-0.281,6.028-0.683,9.042c-0.12,0.804-1.286,0.844-1.286,0
		c-0.04-3.014,0.04-6.028,0.442-9.042C228.873,31.571,230.28,31.531,230.28,32.536z"/>
	<path style="fill:#1D1D1B;" d="M228.15,34.063c0.04,1.326,0,2.652-0.04,4.019c0,0.764-1.206,0.764-1.206,0
		c-0.04-1.366-0.08-2.693-0.04-4.019C226.904,33.219,228.11,33.219,228.15,34.063z"/>
	<path style="fill:#1D1D1B;" d="M227.628,90.805c0.121,1.487-0.04,2.773-0.482,4.179c-0.281,0.804-1.527,0.482-1.286-0.322
		c0.402-1.286,0.563-2.532,0.523-3.858C226.382,90.001,227.547,90.041,227.628,90.805z"/>
	<path style="fill:#F0954F;" d="M221.198,4.044c4.42-0.723,8.439-0.121,11.935,2.692c-7.515,5.224-14.427,8.56-22.866,2.532
		c-0.08-0.04-0.161,0-0.241,0C210.669,5.692,218.425,4.526,221.198,4.044z"/>
	<path style="fill:#1D1D1B;" d="M222.645,145.337c0.201-0.884,1.688-0.683,1.607,0.201c-0.241,2.451-0.643,4.863-1.045,7.274
		c-0.161,0.884-1.728,0.683-1.607-0.241C221.881,150.159,222.203,147.748,222.645,145.337z"/>
	<path style="fill:#1D1D1B;" d="M219.349,148.913c0.12-0.723,1.286-0.563,1.206,0.161c-0.402,4.099-1.085,8.198-1.808,12.257
		c-0.121,0.643-1.206,0.482-1.125-0.161C218.063,157.071,218.586,152.972,219.349,148.913z"/>
	<path style="fill:#1D1D1B;" d="M212.277,230.571c0.522-0.884,1.808-0.12,1.366,0.764c-1.567,2.974-3.858,5.305-6.872,6.791
		c-0.844,0.442-1.567-0.764-0.764-1.286C208.539,235.232,210.709,233.102,212.277,230.571z"/>
	<path style="fill:#1D1D1B;" d="M211.795,237.121c0.442-0.723,1.447-0.08,1.085,0.643c-1.567,3.416-5.264,5.305-9.002,4.782
		c-0.643-0.08-0.683-1.045,0-1.005C207.213,241.662,210.107,239.934,211.795,237.121z"/>
	<path style="fill:#1D1D1B;" d="M198.292,90.966c0.964,14.869-1.085,31.063-11.011,42.878
		c-8.921,10.689-23.308,16.476-37.091,14.587c-3.617-0.522-6.711-1.447-9.484-2.692c-0.04,0.322-0.161,0.643-0.442,0.924
		c-9.645,10.288-21.941,22.022-37.373,19.972c-10.85-1.487-21.138-9.765-26.724-19.008c-12.337,3.094-28.25,1.527-37.774-0.362
		c-16.798-3.295-23.267-19.611-23.629-35.484c-0.08-0.121-0.201-0.241-0.241-0.482c-3.456-37.091,5.264-73.902,47.098-80.211
		c25.397-3.818,53.648-2.371,79.206-1.005c14.226,0.804,30.903,2.049,42.155,11.855C195.841,53.151,197.287,75.012,198.292,90.966z
		 M187.281,126.811c9.645-15.512,7.595-34.921,4.742-52c-3.255-19.53-9.524-32.751-29.496-37.574
		c-26.884-6.55-60.64-4.621-88.207-3.255C53.825,34.987,34.817,40.13,24.128,59.42c-8.439,15.271-7.032,33.957-7.274,50.835
		c4.702,16.838,7.876,32.993,30.139,34.56c12.699,0.924,29.979,1.808,40.588-6.028c0.08-0.08,0.161-0.08,0.241-0.121
		c3.978-4.903,6.711-10.368,10.247-15.672c2.371-3.496,6.108-8.519,10.77-8.399c0.442-0.201,1.005-0.161,1.527,0.161
		c7.675,4.742,11.091,11.413,17.159,17.682C144.524,150.119,174.06,148.15,187.281,126.811z M137.853,144.292
		c-11.453-6.51-16.999-18.566-29.416-26.241c-0.08-0.04-0.12-0.12-0.201-0.201c-9.886,5.184-10.85,19.329-20.776,24.754
		c-0.08,0.04-0.201,0-0.281,0.04c-2.451,1.889-5.425,3.295-8.72,4.3c6.389,7.595,14.869,14.628,24.875,15.954
		C118.082,164.787,128.49,153.856,137.853,144.292z"/>
	<path style="fill:#F0954F;" d="M192.023,74.811c2.853,17.079,4.903,36.489-4.742,52c-13.221,21.339-42.758,23.308-59.756,5.626
		c-6.068-6.269-9.484-12.94-17.159-17.682c-0.522-0.322-1.085-0.362-1.527-0.161c-4.662-0.121-8.399,4.903-10.77,8.399
		c-3.536,5.305-6.269,10.77-10.247,15.672c-0.08,0.04-0.161,0.04-0.241,0.121c-10.609,7.836-27.889,6.952-40.588,6.028
		c-22.263-1.567-25.438-17.722-30.139-34.56c0.241-16.878-1.165-35.564,7.274-50.835C34.817,40.13,53.825,34.986,74.32,33.981
		c27.567-1.366,61.323-3.295,88.207,3.255C182.499,42.06,188.768,55.281,192.023,74.811z M182.901,112.304
		c8.198-18.244,4.581-34.72-4.702-52.483c-0.321-0.603-0.804-0.844-1.326-0.884c-12.859-20.414-40.547-18.043-61.806-17.642
		C92.644,41.738,59.21,39.89,40.322,54.758c-15.472,12.176-15.07,35.966-13.02,53.768c2.25,19.651,10.087,30.3,28.733,29.416
		c7.836,0.764,15.471-1.487,22.424-5.947c10.971-7.033,18.445-24.272,33.314-22.383c0.04,0,0.08,0,0.121,0
		c16.275,4.742,23.991,23.709,42.235,24.795c13.703,0.804,25.277-7.635,29.416-20.495
		C183.745,113.228,183.423,112.666,182.901,112.304z M181.093,55.04c0.522,0.924,1.929,0.121,1.407-0.804
		c-1.165-2.009-2.371-4.019-3.617-5.988c-0.482-0.804-1.688-0.08-1.246,0.723C178.762,51.021,179.887,53.03,181.093,55.04z
		 M176.19,52.468c0.321,0.643,1.406,0.201,1.205-0.522c-0.924-2.933-3.054-4.943-5.988-5.907c-0.643-0.241-1.085,0.804-0.442,1.085
		C173.337,48.168,175.105,50.057,176.19,52.468z M168.113,138.184c0.844-0.563,0.08-1.889-0.764-1.366
		c-1.527,0.964-3.094,1.607-4.822,2.009c-0.804,0.201-0.643,1.527,0.201,1.447C164.737,139.992,166.465,139.389,168.113,138.184z
		 M62.987,40.934c0.924-0.161,0.723-1.728-0.241-1.688c-2.733,0.201-5.264,0.884-7.796,1.929c-0.965,0.402-0.563,2.009,0.442,1.607
		C57.843,41.899,60.375,41.336,62.987,40.934z M23.806,73.646c0.442-1.005-0.965-1.889-1.527-0.884
		c-1.286,2.492-2.411,4.983-3.576,7.515c-0.442,1.005,0.965,1.849,1.487,0.884C21.435,78.669,22.681,76.217,23.806,73.646z
		 M23.565,79.392c0.161-0.643-0.764-0.884-1.005-0.281c-1.165,3.295-1.607,6.711-1.567,10.167c0.04,0.723,1.085,0.723,1.125,0
		C22.158,85.942,22.721,82.647,23.565,79.392z"/>
	<path style="fill:#99D9F1;" d="M184.709,88.193c0.563,9.202-3.014,17.802-4.983,26.603c-4.742,8.841-12.257,15.954-23.147,16.275
		c-11.694,0.362-19.249-7.756-27.005-14.869c-5.305-4.822-10.328-8.318-16.918-9.082c-0.161-0.121-0.321-0.241-0.482-0.281
		c-8.118-3.054-14.587,1.326-20.173,7.153c-10.931,11.493-20.455,20.093-35.725,21.339c-26.081-3.737-27.688-26.603-26.161-48.022
		c2.05-28.572,19.852-36.77,45.771-39.703c27.367-3.094,80.733-11.774,98.696,13.985c0.241,0.321,0.563,0.522,0.884,0.643
		C179.686,70.431,184.107,78.829,184.709,88.193z M162.808,95.225c0.924,1.125,2.893-0.362,2.009-1.567
		c-3.818-5.264-8.198-10.127-12.739-14.828c-1.165-1.205-3.014,0.603-1.848,1.849C154.61,85.38,158.669,90.323,162.808,95.225z
		 M158.227,118.372c0.884,1.045,2.291-0.442,1.487-1.487c-13.542-17.119-28.17-33.354-43.36-49.027
		c-0.723-0.683-1.768,0.362-1.125,1.125C129.896,85.139,144.082,101.735,158.227,118.372z M101.565,95.667
		c0.804,1.005,2.612-0.362,1.849-1.407c-6.631-8.961-13.904-17.963-22.062-25.558c-0.643-0.603-1.447,0.281-0.924,0.924
		C87.299,78.428,94.653,86.867,101.565,95.667z M79.302,114.434c1.085,1.165,2.733-0.563,1.688-1.728
		c-9.564-10.971-19.41-21.741-28.974-32.751c-0.844-1.005-2.17,0.402-1.366,1.366C59.852,92.613,69.256,103.825,79.302,114.434z
		 M60.455,122.23c0.965,0.844,2.25-0.442,1.406-1.406c-6.189-6.832-12.739-13.422-19.128-20.053
		c-0.723-0.723-1.768,0.362-1.125,1.125C47.315,109.049,53.624,116.162,60.455,122.23z M50.409,127.454
		c0.643,0.321,1.206-0.643,0.563-0.965c-1.326-0.643-2.692-1.326-4.019-1.969c-0.603-0.281-1.125,0.603-0.563,0.884L50.409,127.454z
		 M45.466,129.222c0.884,0.281,1.407-1.045,0.603-1.487c-1.045-0.563-2.09-1.165-3.054-1.889c-0.161-0.161-2.491-2.21-2.652-2.532
		c0.12-0.121,0.161-0.281,0.161-0.482c-0.04-0.04-0.04-0.08-0.04-0.161c-0.08-0.362-0.563-0.482-0.844-0.322
		c-1.447,0.723-0.321,2.17,0.362,3.014C41.447,127.173,43.256,128.499,45.466,129.222z"/>
	<path style="fill:#1D1D1B;" d="M178.199,59.822c9.283,17.762,12.9,34.238,4.702,52.483c0.522,0.362,0.844,0.924,0.643,1.607
		c-4.139,12.859-15.713,21.298-29.416,20.495c-18.244-1.085-25.96-20.053-42.235-24.795c-0.04,0-0.08,0-0.121,0
		c-14.869-1.889-22.343,15.351-33.314,22.383c-6.952,4.461-14.587,6.711-22.424,5.947c-18.646,0.884-26.482-9.765-28.733-29.416
		c-2.049-17.802-2.451-41.592,13.02-53.768c18.887-14.869,52.322-13.02,74.745-13.462c21.258-0.402,48.946-2.773,61.806,17.642
		C177.396,58.978,177.878,59.219,178.199,59.822z M179.726,114.796c1.969-8.801,5.546-17.4,4.983-26.603
		c-0.603-9.363-5.023-17.762-9.243-25.96c-0.322-0.12-0.643-0.321-0.884-0.643c-17.963-25.759-71.329-17.079-98.696-13.985
		c-25.92,2.933-43.722,11.131-45.771,39.703c-1.527,21.419,0.08,44.285,26.161,48.022c15.271-1.246,24.795-9.846,35.725-21.339
		c5.586-5.827,12.056-10.207,20.173-7.153c0.161,0.04,0.322,0.161,0.482,0.281c6.59,0.764,11.614,4.26,16.918,9.082
		c7.756,7.113,15.311,15.23,27.005,14.869C167.47,130.749,174.984,123.637,179.726,114.796z"/>
	<path style="fill:#1D1D1B;" d="M182.499,54.236c0.522,0.924-0.884,1.728-1.407,0.804c-1.206-2.009-2.331-4.019-3.456-6.068
		c-0.442-0.804,0.764-1.527,1.246-0.723C180.128,50.217,181.334,52.227,182.499,54.236z"/>
	<path style="fill:#1D1D1B;" d="M177.396,51.945c0.201,0.723-0.884,1.165-1.205,0.522c-1.085-2.411-2.853-4.3-5.224-5.345
		c-0.643-0.281-0.201-1.326,0.442-1.085C174.341,47.002,176.471,49.012,177.396,51.945z"/>
	<path style="fill:#F0954F;" d="M174.984,188.255c4.461,14.386-4.26,29.456-19.892,31.063
		c-16.275,1.688-27.608-10.006-31.586-24.754c0.201,0.04,0.442,0.04,0.643,0.08C139.822,197.779,159.593,191.671,174.984,188.255z
		 M153.003,213.974c0.723,0.241,1.045-0.884,0.322-1.165c-3.295-1.165-6.47-2.572-9.444-4.38c-0.522-0.321-1.005,0.482-0.482,0.804
		C146.412,211.241,149.547,212.849,153.003,213.974z M144.966,215.421c0.764,0.161,1.085-0.924,0.322-1.125
		c-3.094-0.844-5.626-2.492-7.796-4.822c-0.482-0.523-1.447,0.161-1.005,0.723C138.616,212.969,141.55,214.737,144.966,215.421z"/>
	<path style="fill:#1D1D1B;" d="M167.349,136.817c0.844-0.523,1.607,0.804,0.764,1.366c-1.648,1.205-3.376,1.808-5.385,2.09
		c-0.844,0.08-1.005-1.246-0.201-1.447C164.255,138.425,165.822,137.782,167.349,136.817z"/>
	<path style="fill:#1D1D1B;" d="M164.817,93.658c0.884,1.206-1.085,2.692-2.009,1.567c-4.139-4.903-8.198-9.845-12.578-14.547
		c-1.165-1.246,0.683-3.054,1.848-1.849C156.62,83.531,161,88.394,164.817,93.658z"/>
	<path style="fill:#1D1D1B;" d="M159.714,116.885c0.804,1.045-0.603,2.532-1.487,1.487c-14.145-16.637-28.331-33.234-42.999-49.388
		c-0.643-0.764,0.402-1.808,1.125-1.125C131.544,83.531,146.171,99.766,159.714,116.885z"/>
	<path style="fill:#1D1D1B;" d="M153.324,212.809c0.723,0.281,0.402,1.406-0.322,1.165c-3.456-1.125-6.59-2.733-9.604-4.742
		c-0.522-0.321-0.04-1.125,0.482-0.804C146.854,210.237,150.029,211.643,153.324,212.809z"/>
	<path style="fill:#1D1D1B;" d="M145.287,214.295c0.763,0.201,0.442,1.286-0.322,1.125c-3.416-0.683-6.349-2.451-8.479-5.224
		c-0.442-0.563,0.522-1.246,1.005-0.723C139.661,211.804,142.193,213.451,145.287,214.295z"/>
	<path style="fill:#1D1D1B;" d="M127.284,143.609c0.522,0.362,0.04,1.206-0.482,0.884c-2.773-1.808-5.264-3.858-7.635-6.148
		c-0.402-0.402,0.241-1.045,0.683-0.643C122.14,139.872,124.632,141.841,127.284,143.609z"/>
	<path style="fill:#1D1D1B;" d="M126.802,139.108c0.683,0.402,0.08,1.366-0.603,1.045c-2.009-0.884-3.496-2.532-4.581-4.421
		c-0.281-0.482,0.442-0.884,0.763-0.442C123.587,136.978,125.034,138.063,126.802,139.108z"/>
	<path style="fill:#F0954F;" d="M108.437,118.051c12.417,7.675,17.963,19.731,29.416,26.241
		c-9.363,9.564-19.771,20.495-34.52,18.606c-10.006-1.326-18.485-8.359-24.875-15.954c3.295-1.005,6.269-2.411,8.72-4.3
		c0.08-0.04,0.201,0,0.281-0.04c9.926-5.425,10.89-19.57,20.776-24.754C108.316,117.93,108.357,118.011,108.437,118.051z
		 M126.802,144.493c0.522,0.322,1.005-0.522,0.482-0.884c-2.652-1.768-5.144-3.737-7.434-5.907
		c-0.442-0.402-1.085,0.241-0.683,0.643C121.537,140.635,124.029,142.685,126.802,144.493z M126.199,140.153
		c0.683,0.322,1.286-0.643,0.603-1.045c-1.768-1.045-3.215-2.13-4.421-3.818c-0.321-0.442-1.045-0.04-0.763,0.442
		C122.703,137.621,124.19,139.269,126.199,140.153z"/>
	<path style="fill:#1D1D1B;" d="M103.414,94.261c0.763,1.045-1.045,2.411-1.849,1.407c-6.912-8.801-14.266-17.24-21.138-26.04
		c-0.522-0.643,0.281-1.527,0.924-0.924C89.51,76.298,96.783,85.299,103.414,94.261z"/>
	<path style="fill:#1D1D1B;" d="M80.99,112.706c1.045,1.165-0.603,2.893-1.688,1.728c-10.046-10.609-19.45-21.821-28.652-33.113
		c-0.804-0.964,0.522-2.371,1.366-1.366C61.58,90.966,71.426,101.735,80.99,112.706z"/>
	<path style="fill:#1D1D1B;" d="M62.746,39.247c0.965-0.04,1.165,1.527,0.241,1.688c-2.612,0.402-5.144,0.965-7.595,1.849
		c-1.005,0.402-1.407-1.206-0.442-1.607C57.482,40.131,60.013,39.448,62.746,39.247z"/>
	<path style="fill:#1D1D1B;" d="M61.862,120.824c0.844,0.964-0.442,2.25-1.406,1.406c-6.832-6.068-13.141-13.181-18.847-20.334
		c-0.643-0.763,0.402-1.848,1.125-1.125C49.123,107.401,55.673,113.992,61.862,120.824z"/>
	<path style="fill:#1D1D1B;" d="M50.971,126.49c0.643,0.321,0.08,1.286-0.563,0.965l-4.019-2.05
		c-0.563-0.281-0.04-1.165,0.563-0.884C48.279,125.164,49.645,125.847,50.971,126.49z"/>
	<path style="fill:#1D1D1B;" d="M46.069,127.735c0.804,0.442,0.281,1.768-0.603,1.487c-2.21-0.723-4.019-2.05-5.465-3.858
		c-0.683-0.844-1.808-2.29-0.362-3.014c0.281-0.161,0.764-0.04,0.844,0.322c0,0.08,0,0.121,0.04,0.161
		c0,0.201-0.04,0.362-0.161,0.482c0.161,0.322,2.492,2.371,2.652,2.532C43.979,126.57,45.024,127.173,46.069,127.735z"/>
	<path style="fill:#1D1D1B;" d="M22.279,72.761c0.563-1.005,1.969-0.121,1.527,0.884c-1.125,2.572-2.371,5.023-3.617,7.515
		c-0.522,0.965-1.929,0.121-1.487-0.884C19.868,77.744,20.993,75.253,22.279,72.761z"/>
	<path style="fill:#1D1D1B;" d="M22.56,79.111c0.241-0.603,1.165-0.362,1.005,0.281c-0.844,3.255-1.406,6.55-1.447,9.886
		c-0.04,0.723-1.085,0.723-1.125,0C20.953,85.822,21.395,82.406,22.56,79.111z"/>
</g>
<g>
</g>
<g>
</g>
<g>
</g>
<g>
</g>
<g>
</g>
<g>
</g>
<g>
</g>
<g>
</g>
<g>
</g>
<g>
</g>
<g>
</g>
<g>
</g>
<g>
</g>
<g>
</g>
<g>
</g>
</svg>
